<?xml version="1.0" encoding="utf-8"?>
<!-- Generator: Adobe Illustrator 19.0.0, SVG Export Plug-In . SVG Version: 6.00 Build 0)  -->
<svg version="1.1" id="Layer_1" xmlns="http://www.w3.org/2000/svg" xmlns:xlink="http://www.w3.org/1999/xlink" x="0px" y="0px"
	 viewBox="0 0 23.8 26.5" style="enable-background:new 0 0 23.8 26.5;" xml:space="preserve">
<style type="text/css">
	.st0{fill:#A8A8A9;}
	.st1{fill:#D0D2D3;}
	.st2{fill:#E5E5E5;}
	.st3{fill:url(#XMLID_32_);}
	.st4{fill:#F5F5F5;}
	.st5{fill:#2E3B48;}
	.st6{fill:#45505D;}
	.st7{fill:#666F7A;}
	.st8{fill:#B0BEC5;}
	.st9{fill:url(#XMLID_33_);}
	.st10{fill:url(#XMLID_34_);}
	.st11{fill:#FFFFFF;}
	.st12{clip-path:url(#XMLID_35_);}
	.st13{fill:#1D4572;}
	.st14{fill:url(#XMLID_36_);}
	.st15{fill:#FEE0B2;}
	.st16{fill:#3F72B8;}
	.st17{fill:#192B4A;}
	.st18{fill:url(#XMLID_37_);}
	.st19{fill:#8ACFDF;}
	.st20{opacity:0.8;fill:#FFFFFF;enable-background:new    ;}
	.st21{opacity:0.8;fill:#AFD181;enable-background:new    ;}
	.st22{fill:#EC6593;}
	.st23{fill:#FCC24D;}
	.st24{fill:none;stroke:#37474F;stroke-linecap:round;stroke-miterlimit:10;}
	.st25{fill:#27A69A;}
	.st26{fill:#FFFFFF;stroke:#FFFFFF;stroke-width:0.75;stroke-miterlimit:10;}
	.st27{fill:#37474F;}
	.st28{fill:none;stroke:#EC6593;stroke-width:2;stroke-linecap:round;stroke-linejoin:round;stroke-miterlimit:10;}
	.st29{fill:none;stroke:#FFFFFF;stroke-linecap:round;stroke-miterlimit:10;stroke-dasharray:5.017,5.017;}
	.st30{fill:#7A86C2;}
	.st31{fill:#FFE082;}
	.st32{fill:none;stroke:#FFFFFF;stroke-width:2;stroke-miterlimit:10;}
</style>
<rect id="XMLID_1_" x="217.9" y="67.6" style="fill:none;" width="224.3" height="351.4"/>
<g id="XMLID_22_" transform="translate(-0.1 0.042)">
	<g id="XMLID_161_" transform="translate(41.937 80.81)">
		<g id="XMLID_162_" transform="translate(77.694)">
			<path id="XMLID_200_" class="st0" d="M263.6,583.4l-52.8,30.5c-12.8,7.4-34.1,6.6-45.1-1.8L101.3,560l70.8-40.8l88.5,38.2
				C275,563.7,276.5,576,263.6,583.4z"/>
			<path id="XMLID_199_" class="st1" d="M263.6,577.4l-52.8,30.5c-12.8,7.4-34.1,6.6-45.1-1.8l-60.2-48.7l70.6-40.8l84.3,34.6
				C275,557.8,276.5,570,263.6,577.4z"/>
			<path id="XMLID_198_" class="st2" d="M263.6,577.4l-52.8,30.5c-12.8,7.4-34.1,6.6-45.1-1.8l-60.2-48.7l70.6-40.8l84.3,34.6
				C275,557.8,276.5,570,263.6,577.4z"/>
			
				<linearGradient id="XMLID_32_" gradientUnits="userSpaceOnUse" x1="-118.0366" y1="710.0816" x2="-117.7766" y2="710.5526" gradientTransform="matrix(166.7934 0 0 -96.326 19862.3008 68978)">
				<stop  offset="0" style="stop-color:#FFFFFF;stop-opacity:0"/>
				<stop  offset="0.539" style="stop-color:#EFEEEE;stop-opacity:0.537"/>
				<stop  offset="1" style="stop-color:#E5E5E5"/>
			</linearGradient>
			<path id="XMLID_197_" class="st3" d="M263.6,577.4l-52.8,30.5c-12.8,7.4-34.1,6.6-45.1-1.8l-60.2-48.7l70.6-40.8l84.3,34.6
				C275,557.8,276.5,570,263.6,577.4z"/>
			<g id="XMLID_163_">
				<path id="XMLID_196_" class="st0" d="M29.1,594.8l-13.9-7.7v24.2l13.9,7.7V594.8z"/>
				<path id="XMLID_195_" class="st4" d="M29.1,594.8v24.2L354,431.3v-24.2L29.1,594.8z"/>
				<path id="XMLID_194_" class="st5" d="M28.3,333.4l-13.9-7.7l0.7,261.4l13.9,7.7L28.3,333.4z"/>
				<path id="XMLID_193_" class="st6" d="M353.3,145.7l-13.7-7.7L14.5,325.7l13.9,7.7L353.3,145.7z"/>
				<path id="XMLID_192_" class="st7" d="M28.3,333.4l0.7,261.4L354,407.1l-0.7-261.4L28.3,333.4z"/>
				<g id="XMLID_164_" transform="translate(24.62 24.031)">
					<path id="XMLID_191_" class="st8" d="M14.5,315.1l0.6,239.1l303.6-177.1L318,138L14.5,315.1z"/>
					
						<linearGradient id="XMLID_33_" gradientUnits="userSpaceOnUse" x1="-143.2638" y1="686.8932" x2="-141.2528" y2="687.6862" gradientTransform="matrix(122.66 0 0 -310.924 17638.332 214012.9531)">
						<stop  offset="0" style="stop-color:#FFFFFF"/>
						<stop  offset="0.235" style="stop-color:#C6CACE;stop-opacity:0.765"/>
						<stop  offset="0.494" style="stop-color:#8F969D;stop-opacity:0.506"/>
						<stop  offset="0.717" style="stop-color:#67707B;stop-opacity:0.282"/>
						<stop  offset="0.893" style="stop-color:#4E5965;stop-opacity:0.106"/>
						<stop  offset="1" style="stop-color:#45505D;stop-opacity:0"/>
					</linearGradient>
					<path id="XMLID_190_" class="st9" d="M174.3,461.5l-81.4,47.3L131.3,247l84.3-49.1L174.3,461.5z"/>
					
						<linearGradient id="XMLID_34_" gradientUnits="userSpaceOnUse" x1="-143.7801" y1="686.8345" x2="-139.2831" y2="687.7435" gradientTransform="matrix(54.843 0 0 -271.561 8027.2676 186909.5)">
						<stop  offset="0" style="stop-color:#FFFFFF"/>
						<stop  offset="0.235" style="stop-color:#C6CACE;stop-opacity:0.765"/>
						<stop  offset="0.494" style="stop-color:#8F969D;stop-opacity:0.506"/>
						<stop  offset="0.717" style="stop-color:#67707B;stop-opacity:0.282"/>
						<stop  offset="0.893" style="stop-color:#4E5965;stop-opacity:0.106"/>
						<stop  offset="1" style="stop-color:#45505D;stop-opacity:0"/>
					</linearGradient>
					<path id="XMLID_189_" class="st10" d="M206,442.9l-16.1,9.4l38.8-262.1l16.1-9.4L206,442.9z"/>
					<g id="XMLID_165_" transform="translate(67.521 98.857)">
						<path id="XMLID_188_" class="st11" d="M14.5,296.1c0,54,37.9,75.8,84.6,48.8s84.6-92.6,84.6-146.5s-37.9-75.8-84.6-48.8
							C52.2,176.6,14.5,242.2,14.5,296.1z"/>
						<g id="XMLID_166_" transform="translate(0)">
							<g id="XMLID_292_">
								<defs>
									<path id="XMLID_312_" d="M14.5,296.3c0,54,38,75.8,84.6,48.8c46.7-27,84.5-92.7,84.5-146.7s-38-75.8-84.6-48.8
										C52.2,176.6,14.3,242.3,14.5,296.3z"/>
								</defs>
								<clipPath id="XMLID_35_">
									<use xlink:href="#XMLID_312_"  style="overflow:visible;"/>
								</clipPath>
								<g id="XMLID_168_" transform="translate(0)" class="st12">
									<path id="XMLID_187_" class="st13" d="M107.7,267.2c0,0,27.7-13.9,43,28.3c10,27.7,14.4,51.9,17.4,60
										c1,2.8,12.1,11.8,18.7,19.5c6.9,8,19.5,23.3,17.2,29c-1.5,4-48.2-12.1-48.2-12.1l9.4,52.8c0,0-14.3,22.9-30.2,26.8
										c0,0,0.9-36.7,0-55.6C133.9,397.1,107.7,267.2,107.7,267.2z"/>
									
										<linearGradient id="XMLID_36_" gradientUnits="userSpaceOnUse" x1="-238.1752" y1="587.1537" x2="-239.8642" y2="587.1337" gradientTransform="matrix(50.567 0 0 -107.767 10778.6289 63660.4336)">
										<stop  offset="0" style="stop-color:#FFFFFF;stop-opacity:0"/>
										<stop  offset="1" style="stop-color:#192B4A"/>
									</linearGradient>
									<path id="XMLID_186_" class="st14" d="M162.9,384.7c-4.6-12.1-23.9-90.1-23.9-90.1l16.7,97.3l0,0c0,0,19.6,6.8,33.9,10.5
										l0,0C189.6,402.4,166.6,394.9,162.9,384.7z"/>
									<path id="XMLID_185_" class="st11" d="M77.9,273.7c-3.2,2.2-6.2,4.6-8.8,7.4c0,0,17.5,25.5,20.5,55.1
										c2.9,29.8,0.1,87.7,0.1,87.7s34.4,7.4,46.4-11.6c0,0-2.4-66.2-14.3-124.1L77.9,273.7z"/>
									<path id="XMLID_184_" class="st11" d="M106,284.8v-13.7l7.2-1.5l8.6,18.7c0.4,0.7,0.1,1.6-0.6,1.9c-0.4,0.2-0.9,0.2-1.3,0
										L106,284.8z"/>
									<path id="XMLID_183_" class="st15" d="M135.8,218.9c0,0,6,52-28.2,52.2H106v13.7l-24.3-13.4v-39.5
										c0-21.5,13-25.9,27.3-25.9C123.1,205.9,135.8,213,135.8,218.9z"/>
									<path id="XMLID_182_" class="st13" d="M81.6,231.9c0,0,9-7.1,9-16.8c0,0,23.1,14,44.8,4.3c4.5-2.1,6.4-7.4,4.4-11.9
										c0-0.1-0.1-0.2-0.1-0.2c-5-10.6-17-28.5-39.7-28.5c-4.5,0-8.8,1.9-11.8,5.3c-2.4-1.2-5.1-1.5-7.7-1
										c-4.1,1-17.5,5.5-17.4,32c0,27.7,18.4,29.9,18.4,29.9L81.6,231.9z"/>
									<circle id="XMLID_181_" class="st15" cx="79.5" cy="239.2" r="8.4"/>
									<path id="XMLID_180_" class="st11" d="M106,284.8l-20.6-11.4c-2.3-1.2-3.7-3.6-3.7-6.2l0,0c0,0-5.3,0.9-5.3,6
										c0,4.3,10.3,20.8,14.3,27.1c0.6,0.9,1.8,1.2,2.8,0.6c0.2-0.1,0.3-0.3,0.5-0.4L106,284.8z"/>
									<path id="XMLID_179_" class="st16" d="M112.8,297.6l18.3,86.5l-11.4,20l-14-15.9l0.3-87L112.8,297.6z"/>
									<path id="XMLID_178_" class="st16" d="M112.8,287.4v10.2l-6.8,3.7l-5.9-9l5.9-7.5L112.8,287.4z"/>
									<path id="XMLID_177_" class="st11" d="M165.5,384.3l68.4,39.2l-52.2,29.9L110.8,416L165.5,384.3z"/>
									<g id="XMLID_174_" transform="translate(102.462 283.495)">
										<path id="XMLID_176_" class="st15" d="M18.9,146.8c0,0,14.7-11.9,23.9-8c3.2,1.5-4,6-6.9,8.1l14.6,7.8
											c0,0-15.5,16.2-36,9.9L18.9,146.8z"/>
									</g>
									<path id="XMLID_173_" class="st17" d="M95.9,416c-2.5,52.8-2.8,70.5-2.8,70.5s-43.3-2.5-55.1-25.1l3.4-64.9L95.9,416z"/>
									<path id="XMLID_172_" class="st13" d="M95.9,416c-2.5,52.8-2.8,70.5-2.8,70.5s-43.3-2.5-55.1-25.1l3.4-64.9L95.9,416z"/>
									<path id="XMLID_171_" class="st13" d="M123.3,426.5c0,0-21.2-7.2-27.1-10.2l-0.4-0.3v-15.9c0-25.2,0.4-96.7-23.9-121
										c0,0-24,16.1-28.7,31.7c-2.1,6.5-5,71.9-5.2,73.7c-0.7,19.6,3.5,53.7,58.1,63.8c6.7,1.3,13.4,2.1,20.2,2.5
										C116.2,450.8,125.2,446.1,123.3,426.5z"/>
									
										<linearGradient id="XMLID_37_" gradientUnits="userSpaceOnUse" x1="-271.99" y1="569.363" x2="-263.474" y2="571.8151" gradientTransform="matrix(27.126 0 0 -94.206 5769.9424 55696.457)">
										<stop  offset="0" style="stop-color:#FFFFFF;stop-opacity:0"/>
										<stop  offset="1" style="stop-color:#192B4A"/>
									</linearGradient>
									<path id="XMLID_170_" class="st18" d="M84.1,404.2c0,0,0.7-6.2-6.6-9.7c-0.7-22.1-2.1-48.2-8.7-72.8c0,0,3.4,36.9,4.1,75.3
										c0,0.4,5.2,0.4,6.2,4.4c0,0.3,0.1,0.6,0.1,0.9c0.1,1.1,0.1,2.2,0,3.2c0,0,9.7,6.9,16.7,10.3v-5.8L84.1,404.2z"/>
									<path id="XMLID_169_" class="st15" d="M195.2,391.7c0,0-12.2-2.8-16.8,6.8c-0.9,2.1,11.1-0.3,11.1-0.3l17.1,9.9
										C206.7,408,208.5,395.7,195.2,391.7z"/>
								</g>
							</g>
						</g>
					</g>
				</g>
			</g>
		</g>
	</g>
	<g id="XMLID_157_" transform="translate(351.535 176.933)">
		<g id="XMLID_158_" transform="translate(0)">
			<circle id="XMLID_160_" class="st19" cx="53.6" cy="177.1" r="39.1"/>
			<path id="XMLID_159_" class="st19" d="M28.5,194.5l-14,21.2l28.2-7.4L28.5,194.5z"/>
		</g>
	</g>
	<g id="XMLID_155_" transform="translate(177.423 33.783)">
		<path id="XMLID_156_" class="st20" d="M22.7,300.3l68.7-39.1c1.7-1,2.7-2.8,2.8-4.7V143.5c0-3-2.5-5.5-5.5-5.5
			c-1,0-1.9,0.3-2.8,0.8l-66.3,37.6c-3.2,1.8-5.1,5.2-5.2,8.8v110.3c0,3.1,2.5,5.6,5.5,5.6C21,301.1,21.9,300.8,22.7,300.3z"/>
	</g>
	<g id="XMLID_153_" transform="translate(193.782 57.044)">
		<path id="XMLID_154_" class="st21" d="M19.5,241l43.6-24.8c1.1-0.6,1.7-1.7,1.8-2.9v-71.8c0-1.9-1.6-3.4-3.5-3.4
			c-0.6,0-1.2,0.2-1.7,0.5l-42,23.9c-2,1.1-3.3,3.3-3.2,5.6v70c-0.1,1.8,1.3,3.4,3.2,3.4C18.3,241.5,19,241.3,19.5,241z"/>
	</g>
	<g id="XMLID_136_" transform="translate(34.271 115.304)">
		<path id="XMLID_152_" class="st20" d="M26.3,405.2l157.5-91c2.4-1.4,3.9-4,4-6.8V145.8c0-4.3-3.6-7.9-7.9-7.8
			c-1.4,0-2.7,0.4-3.9,1.1L21.9,228c-4.5,2.6-7.3,7.4-7.4,12.7v157.7C14.6,404.4,21.1,408.3,26.3,405.2z"/>
		<g id="XMLID_137_" transform="translate(21.377 39.102)">
			<path id="XMLID_151_" class="st22" d="M106.6,188l37.5-21.7c0.6-0.3,0.9-1,0.9-1.6v-24.8c0-1-0.8-1.9-1.9-1.9
				c-0.3,0-0.7,0.1-0.9,0.3l-36.7,21.2c-1.1,0.6-1.7,1.7-1.8,2.9v23.9c0.2,1.1,1.2,1.9,2.4,1.8C106.3,188.1,106.5,188.1,106.6,188z"
				/>
			<path id="XMLID_150_" class="st23" d="M115.8,272.5l28.7-16.7c0.4-0.2,0.7-0.7,0.7-1.2v-29.5c0-0.8-0.7-1.4-1.5-1.4
				c-0.2,0-0.5,0.1-0.7,0.2l-28.2,16.2c-0.9,0.5-1.4,1.4-1.3,2.4v28.7c0,0.8,0.7,1.4,1.5,1.4C115.3,272.7,115.6,272.6,115.8,272.5z"
				/>
			<line id="XMLID_149_" class="st24" x1="145.1" y1="183.6" x2="14.5" y2="258.9"/>
			<line id="XMLID_148_" class="st24" x1="145.1" y1="193.1" x2="14.5" y2="268.6"/>
			<line id="XMLID_147_" class="st24" x1="145.1" y1="202.9" x2="14.5" y2="278.2"/>
			<line id="XMLID_146_" class="st24" x1="145.1" y1="212.6" x2="14.5" y2="287.9"/>
			<line id="XMLID_145_" class="st24" x1="89.7" y1="176.3" x2="14.5" y2="219.7"/>
			<line id="XMLID_144_" class="st24" x1="89.7" y1="186.1" x2="14.5" y2="229.4"/>
			<line id="XMLID_143_" class="st24" x1="89.7" y1="195.6" x2="14.5" y2="239.1"/>
			<line id="XMLID_142_" class="st24" x1="145.1" y1="173.4" x2="14.5" y2="248.7"/>
			<line id="XMLID_141_" class="st24" x1="103.8" y1="246.1" x2="14.5" y2="297.7"/>
			<line id="XMLID_140_" class="st24" x1="103.8" y1="255.6" x2="14.5" y2="307.2"/>
			<line id="XMLID_139_" class="st24" x1="103.8" y1="265.4" x2="14.5" y2="317"/>
			<line id="XMLID_138_" class="st24" x1="103.8" y1="275.1" x2="14.5" y2="326.7"/>
		</g>
	</g>
	<g id="XMLID_117_" transform="translate(387.212 305.639)">
		<path id="XMLID_135_" class="st20" d="M22.7,300.2l68.7-39.1c1.7-1,2.7-2.8,2.8-4.7V143.5c0-3-2.5-5.5-5.5-5.5
			c-1,0-1.9,0.3-2.8,0.8l-66.3,37.6c-3.2,1.8-5.1,5.2-5.2,8.8v110.3c0,3,2.4,5.5,5.4,5.5C20.9,301,21.9,300.7,22.7,300.2z"/>
		<g id="XMLID_118_" transform="translate(11.499 25.208)">
			<g id="XMLID_131_">
				<line id="XMLID_134_" class="st24" x1="71.2" y1="138" x2="14.5" y2="170.8"/>
				<line id="XMLID_133_" class="st24" x1="71.2" y1="145.4" x2="14.5" y2="178.1"/>
				<line id="XMLID_132_" class="st24" x1="71.2" y1="152.6" x2="14.5" y2="185.4"/>
			</g>
			<g id="XMLID_127_" transform="translate(0 21.672)">
				<line id="XMLID_130_" class="st24" x1="71.2" y1="138" x2="14.5" y2="170.8"/>
				<line id="XMLID_129_" class="st24" x1="71.2" y1="145.4" x2="14.5" y2="178.1"/>
				<line id="XMLID_128_" class="st24" x1="71.2" y1="152.6" x2="14.5" y2="185.5"/>
			</g>
			<g id="XMLID_123_" transform="translate(0 43.344)">
				<line id="XMLID_126_" class="st24" x1="71.2" y1="138" x2="14.5" y2="170.9"/>
				<line id="XMLID_125_" class="st24" x1="71.2" y1="145.4" x2="14.5" y2="178.1"/>
				<line id="XMLID_124_" class="st24" x1="71.2" y1="152.6" x2="14.5" y2="185.5"/>
			</g>
			<g id="XMLID_119_" transform="translate(0 65.015)">
				<line id="XMLID_122_" class="st24" x1="71.2" y1="138" x2="14.5" y2="170.9"/>
				<line id="XMLID_121_" class="st24" x1="71.2" y1="145.4" x2="14.5" y2="178.1"/>
				<line id="XMLID_120_" class="st24" x1="71.2" y1="152.8" x2="14.5" y2="185.5"/>
			</g>
		</g>
	</g>
	<g id="XMLID_104_" transform="translate(294.623 -0.042)">
		<path id="XMLID_116_" class="st25" d="M20.7,280.8l84.2-48.7c1.3-0.7,2.1-2.2,2.1-3.7v-86.2c0-2.3-1.9-4.2-4.2-4.2
			c-0.7,0-1.4,0.2-2,0.5L18.5,186c-2.4,1.4-3.9,4-4,6.8v84.3c-0.1,2.2,1.6,4.2,3.8,4.3C19.2,281.4,20,281.2,20.7,280.8z"/>
		<g id="XMLID_105_" transform="translate(19.907 38.348)">
			<g id="XMLID_107_" transform="translate(0)">
				<path id="XMLID_109_" class="st26" d="M30,204.7c4.2-0.2,8.3-1.4,11.9-3.5c13.9-8,25.2-27.6,25.2-43.6c0-8.3-2.9-14.4-8.1-17.5
					c-5.3-3.1-12.1-2.5-19.3,1.6c-13.9,8-25.2,27.6-25.2,43.6c0,8.3,2.9,14.4,8.1,17.5C24.8,204.1,27.4,204.8,30,204.7z M51.5,142.4
					c1.8,0,3.6,0.4,5.2,1.3c3.8,2.2,6,7.1,6,13.7c0,14.7-10.3,32.6-23,40c-5.8,3.2-11.1,4-14.9,1.6c-3.8-2.2-6-7.1-6-13.7
					c0-14.7,10.3-32.6,23-40C44.7,143.5,48.1,142.5,51.5,142.4z"/>
				<path id="XMLID_108_" class="st26" d="M47.1,183.2v-31l-18.3,26.1L47.1,183.2z"/>
			</g>
		</g>
	</g>
	<g id="XMLID_97_" transform="translate(80.563 337.509)">
		<path id="XMLID_103_" class="st20" d="M21.4,292.7l91.1-52.6c1.4-0.8,2.2-2.4,2.2-4v-93.5c0-2.5-2.1-4.6-4.6-4.5
			c-0.8,0-1.5,0.2-2.2,0.6L18.8,190c-2.7,1.5-4.3,4.3-4.3,7.4v91.3c0,2.6,2.1,4.6,4.7,4.6C20,293.2,20.7,293,21.4,292.7z"/>
		<g id="XMLID_100_" transform="translate(8.846 68.7)">
			<path id="XMLID_102_" class="st27" d="M55.8,173.5L68.2,152l24.5,14.1c1.5,0.9,3.4,0.3,4.3-1.2s0.3-3.4-1.2-4.3l0,0l-29.8-17.2
				L53.6,165l-31.3-18c-1.5-0.9-3.4-0.3-4.3,1.2s-0.3,3.4,1.2,4.3L55.8,173.5z"/>
			<path id="XMLID_101_" class="st27" d="M17.6,169.7c1.7,0,3.1-1.3,3.1-2.9c0-0.1,0-0.1,0-0.2V151l12.4-7.1
				c1.4-0.9,1.9-2.8,1.2-4.3c-0.9-1.5-2.8-2-4.3-1.2l-15.5,8.8v19.2c-0.1,1.7,1.2,3.1,2.9,3.2C17.4,169.7,17.5,169.7,17.6,169.7z"/>
		</g>
		<line id="XMLID_99_" class="st28" x1="102.2" y1="163.7" x2="81.3" y2="175.7"/>
		<line id="XMLID_98_" class="st28" x1="69" y1="182.5" x2="61.5" y2="186.8"/>
	</g>
	<g id="XMLID_85_" transform="translate(477.483 144.351)">
		<g id="XMLID_94_" transform="translate(0 11.404)">
			<path id="XMLID_96_" class="st29" d="M38.2,239c7.8,0.7,16.1-2.8,23.4-10.2c16.2-16.2,24.2-46.3,18.1-68.6
				c-3.5-13.1-11.5-21.2-21.7-22.1c-7.8-0.7-16.1,2.8-23.4,10.2c-16.2,16.2-24.2,46.3-18.1,68.6C20,229.8,28,237.9,38.2,239z"/>
		</g>
		<path id="XMLID_93_" class="st11" d="M21.4,226.9c5.5,20.3,22,24.6,36.9,9.7s22.4-43.5,17-63.7c-5.5-20.3-22-24.6-36.9-9.7
			C23.4,178.1,15.8,206.6,21.4,226.9z"/>
		<g id="XMLID_90_" transform="translate(18.226 34.382)">
			<path id="XMLID_92_" class="st30" d="M16.7,162.5c0.1,8.3,6,11.5,13,7.2c7.1-4.3,12.7-14.3,12.5-22.6s-6-11.5-13-7.2
				C22.2,144.2,16.6,154.2,16.7,162.5z"/>
			<path id="XMLID_91_" class="st30" d="M29.7,169.7c8.7-5.2,15.8-1.3,16.1,8.8l-31.3,18.9C14.2,187.2,21.1,174.9,29.7,169.7z"/>
		</g>
		<g id="XMLID_86_" transform="translate(50.08)">
			<g id="XMLID_87_">
				<circle id="XMLID_89_" class="st31" cx="32.8" cy="156.3" r="18.3"/>
				<path id="XMLID_88_" class="st31" d="M21,164.4l-6.5,9.9l13.1-3.4L21,164.4z"/>
			</g>
		</g>
	</g>
	<g id="XMLID_73_" transform="translate(477.483 268.633)">
		<g id="XMLID_82_" transform="translate(0 11.551)">
			<path id="XMLID_84_" class="st29" d="M38.2,239c7.8,0.7,16.1-2.8,23.4-10.2c16.2-16.2,24.2-46.3,18.1-68.6
				c-3.5-13.1-11.5-21.2-21.7-22.1c-7.8-0.7-16.1,2.8-23.4,10.2c-16.2,16.2-24.2,46.3-18.1,68.6C20,229.8,28,237.9,38.2,239z"/>
		</g>
		<path id="XMLID_81_" class="st11" d="M21.4,226.9c5.5,20.3,22,24.6,36.9,9.7s22.4-43.5,17-63.7c-5.5-20.3-22-24.6-36.9-9.7
			S15.8,206.7,21.4,226.9z"/>
		<g id="XMLID_78_" transform="translate(18.226 34.382)">
			<path id="XMLID_80_" class="st30" d="M16.7,162.5c0.1,8.3,6,11.5,13,7.2c7.1-4.3,12.7-14.3,12.5-22.6s-6-11.5-13-7.2
				C22.2,144.2,16.6,154.4,16.7,162.5z"/>
			<path id="XMLID_79_" class="st30" d="M29.7,169.7c8.7-5.2,15.8-1.3,16.1,8.8l-31.3,18.9C14.2,187.4,21.1,175,29.7,169.7z"/>
		</g>
		<g id="XMLID_74_" transform="translate(50.08)">
			<g id="XMLID_75_">
				<circle id="XMLID_77_" class="st31" cx="32.8" cy="156.3" r="18.3"/>
				<path id="XMLID_76_" class="st31" d="M21,164.6l-6.5,9.9l13.1-3.4L21,164.6z"/>
			</g>
		</g>
	</g>
	<g id="XMLID_61_" transform="translate(477.483 27.147)">
		<g id="XMLID_70_" transform="translate(0 11.404)">
			<path id="XMLID_72_" class="st29" d="M38.2,239c7.8,0.7,16.1-2.8,23.4-10.2c16.2-16.2,24.2-46.3,18.1-68.6
				c-3.5-13.1-11.5-21.2-21.7-22.1c-7.8-0.7-16.1,2.8-23.4,10.2c-16.2,16.2-24.2,46.3-18.1,68.6C20,229.8,28,237.9,38.2,239z"/>
		</g>
		<path id="XMLID_69_" class="st11" d="M21.4,226.9c5.5,20.3,22,24.6,36.9,9.7C73,221.8,80.5,193.3,75,173s-22-24.6-36.9-9.7
			C23.4,178.1,15.8,206.6,21.4,226.9z"/>
		<g id="XMLID_66_" transform="translate(18.226 34.382)">
			<path id="XMLID_68_" class="st30" d="M16.7,162.5c0.1,8.3,6,11.5,13,7.2c7.1-4.3,12.7-14.3,12.5-22.6c-0.1-8.3-6-11.5-13-7.2
				C22.2,144.2,16.6,154.2,16.7,162.5z"/>
			<path id="XMLID_67_" class="st30" d="M29.7,169.7c8.7-5.2,15.8-1.3,16.1,8.8l-31.3,18.9C14.2,187.2,21.1,174.9,29.7,169.7z"/>
		</g>
		<g id="XMLID_62_" transform="translate(50.08)">
			<g id="XMLID_63_">
				<circle id="XMLID_65_" class="st31" cx="32.8" cy="156.3" r="18.3"/>
				<path id="XMLID_64_" class="st31" d="M21,164.4l-6.5,9.9l13.1-3.4L21,164.4z"/>
			</g>
		</g>
	</g>
	<path id="XMLID_60_" class="st32" d="M158.3,244.2c0,1.6,1,2.2,2.5,1.5c1.5-0.9,2.4-2.5,2.5-4.3c0-1.6-1-2.2-2.5-1.5
		C159.4,240.9,158.4,242.5,158.3,244.2z"/>
	<path id="XMLID_59_" class="st32" d="M481.3,194.8c0,1.6,1,2.2,2.5,1.5c1.5-0.9,2.4-2.5,2.5-4.3c0-1.6-1-2.2-2.5-1.5
		C482.3,191.4,481.3,193,481.3,194.8z"/>
	<path id="XMLID_58_" class="st32" d="M416,632.2c0,1.6,1,2.2,2.5,1.5c1.5-0.9,2.5-2.5,2.5-4.3c0-1.6-1-2.2-2.5-1.5
		C417.1,628.9,416.2,630.5,416,632.2z"/>
	<path id="XMLID_57_" class="st32" d="M15.6,540.4c0,1.6,1,2.2,2.5,1.5c1.5-0.9,2.4-2.5,2.5-4.3c0-1.6-1-2.2-2.5-1.5
		C16.7,537.1,15.8,538.7,15.6,540.4z"/>
	<path id="XMLID_56_" class="st32" d="M298.6,174.8c0,1.6,1,2.2,2.5,1.5c1.5-0.9,2.4-2.5,2.5-4.3c0-1.6-1-2.2-2.5-1.5
		C299.7,171.4,298.8,173,298.6,174.8z"/>
	<path id="XMLID_55_" class="st32" d="M509.9,550c0,1.6,1,2.2,2.5,1.5c1.5-0.9,2.4-2.5,2.5-4.3c0-1.6-1-2.2-2.5-1.5
		C511,546.7,510.1,548.2,509.9,550z"/>
	<path id="XMLID_54_" class="st32" d="M589.1,375.6c0,1.6,1,2.2,2.5,1.5c1.5-0.9,2.4-2.5,2.5-4.3c0-1.6-1-2.2-2.5-1.5
		C590.1,372.2,589.2,373.8,589.1,375.6z"/>
	<path id="XMLID_53_" class="st32" d="M177.6,165.2c0,1.6,1,2.2,2.5,1.5c1.5-0.9,2.4-2.5,2.5-4.3c0-1.6-1-2.2-2.5-1.5
		C178.6,161.8,177.6,163.4,177.6,165.2z"/>
	<path id="XMLID_52_" class="st32" d="M67.6,591.7c0,1.6,1,2.2,2.5,1.5c1.5-0.9,2.4-2.5,2.5-4.3c0-1.6-1-2.2-2.5-1.5
		C68.7,588.4,67.8,590,67.6,591.7z"/>
	<path id="XMLID_51_" class="st32" d="M53.9,660.5c0,1.6,1,2.2,2.5,1.5c1.5-0.9,2.4-2.5,2.5-4.3c0-1.6-1-2.2-2.5-1.5
		C54.9,657.2,54,658.8,53.9,660.5z"/>
	<path id="XMLID_50_" class="st32" d="M135.9,235.9c0,5.3,3.7,7.5,8.3,4.9c4.6-2.7,8.3-9.1,8.3-14.4s-3.7-7.5-8.3-4.9
		C139.6,224.3,135.9,230.6,135.9,235.9z"/>
	<path id="XMLID_49_" class="st32" d="M483.7,160.8c0,5.3,3.7,7.5,8.3,4.9c4.6-2.7,8.3-9.1,8.3-14.4s-3.7-7.5-8.3-4.9
		C487.5,149.1,483.7,155.4,483.7,160.8z"/>
	<path id="XMLID_48_" class="st32" d="M550.9,554.5c0,5.3,3.7,7.5,8.3,4.9c4.6-2.7,8.3-9.1,8.3-14.4s-3.7-7.5-8.3-4.9
		C554.7,542.7,550.9,549.2,550.9,554.5z"/>
	<path id="XMLID_47_" class="st32" d="M451.4,638.9c0,5.3,3.7,7.5,8.3,4.9c4.6-2.7,8.3-9.1,8.3-14.4s-3.7-7.5-8.3-4.9
		C455.1,627.1,451.4,633.6,451.4,638.9z"/>
	<path id="XMLID_46_" class="st32" d="M78.5,669.4c0,5.3,3.7,7.5,8.3,4.9c4.6-2.7,8.3-9.1,8.3-14.4s-3.7-7.5-8.3-4.9
		C82.2,657.7,78.5,664.1,78.5,669.4z"/>
	<path id="XMLID_45_" class="st32" d="M608.2,355.1c0,5.3,3.7,7.5,8.3,4.9s8.3-9.1,8.3-14.4c0-5.3-3.7-7.5-8.3-4.9
		S608.2,349.8,608.2,355.1z"/>
	<g id="XMLID_39_" transform="translate(41.937 69.753)">
		<path id="XMLID_42_" class="st11" d="M19.1,183L19.1,183c2.1-1.2,3.1-4.7,1.6-5.5l-0.9-0.4c-1.8-1-1.8-4.4,0-7.5l4.7-8.1
			c1.8-3.1,4.7-4.9,6.5-3.8l0.3,0.1c2.1,1.2,5.6-2.5,5.6-5.9l0,0c0.2-3.2,1.9-6.2,4.6-8l6.6-3.8c2.5-1.5,4.6-0.3,4.6,2.7l0,0
			c0,3.1,3.2,2.8,5-0.4l0.1-0.1c1.8-3.1,4.7-4.9,6.5-3.8L69,141c1.8,1,1.8,4.4,0,7.5l-0.3,0.4c-1.6,2.8-0.4,5.5,1.9,4.1l0,0
			c2.5-1.5,4.6-0.3,4.6,2.7v7.7c-0.2,3.2-1.9,6.2-4.6,8l-1.2,0.7c-2.5,1.5-3.7,5.6-1.9,6.6l0,0c1.8,1,1.8,4.4,0,7.5l-4.7,8.1
			c-1.8,3.1-4.7,4.9-6.5,3.8l0,0c-1.3-0.7-3.5,1.6-3.5,3.8v0.6c-0.2,3.2-1.9,6.2-4.6,8l-6.6,3.8c-2.5,1.5-4.6,0.3-4.6-2.7v-0.1
			c0-2.7-2.8-2.4-4.4,0.4l0,0c-1.8,3.1-4.7,4.9-6.5,3.8l-4.7-2.7c-1.8-1-1.8-4.4,0-7.5l0,0c1.8-3.1,0.6-5.8-1.9-4.4l-0.4,0.3
			c-2.5,1.5-4.6,0.3-4.6-2.7v-7.7C14.6,187.9,16.3,184.9,19.1,183z M42.4,193.9c9.4-3.4,17.4-17.2,15.6-27.1c-1-5.5-5.2-8-10.5-6
			c-9.4,3.4-17.4,17.2-15.6,27.1C32.9,193.3,37,195.7,42.4,193.9z"/>
		<path id="XMLID_40_" class="st11" d="M35.6,182.7c0,6,4.3,8.4,9.4,5.5c5.2-2.9,9.4-10.3,9.4-16.4c0-6-4.3-8.4-9.4-5.5
			C39.7,169.4,35.6,176.7,35.6,182.7z"/>
	</g>
	<path id="XMLID_30_" class="st11" d="M421.2,282.1l2.1-1.2v-0.7c0.1-2.4,1.4-4.6,3.4-5.9l19.6-11.4c1.9-1,3.4-0.1,3.4,1.9v11.1
		c-0.1,2.4-1.4,4.6-3.4,5.9l-19.6,11.4c-1.9,1-3.4,0.1-3.4-1.9v-0.7l-2.1,1.2c-0.4,0.2-0.8,0.1-1.1-0.2c-0.1-0.2-0.1-0.3-0.1-0.5
		v-6.8C420.1,283.4,420.5,282.6,421.2,282.1z M440.5,282.4l4.1-2.4c1.2-0.8,2-2.2,2.1-3.7v-8.3c0-1.3-0.9-1.9-2.1-1.2l-4.1,2.4
		V282.4z M433.4,286.5l6-3.5v-13.3l-6,3.5V286.5z M426.2,288.1c0,1.3,1,1.9,2.1,1.2l4.1-2.4v-13.3l-4.1,2.4c-1.2,0.8-2,2.2-2.1,3.7
		V288.1z"/>
	<g id="XMLID_24_" transform="translate(404.016 29.212)">
		<g id="XMLID_28_" transform="translate(0)">
			<path id="XMLID_29_" class="st11" d="M59,159.1c-0.3-11.9-8.6-17.5-19.5-11.2c-10.9,6.2-19,21.2-19.5,33.6
				c-0.1,4.3-5.8,7.5-5.6,3.2c0.4-15.9,11.1-35.2,25.1-43.3c14-8.1,24.6-1,25.1,14.4C64.8,160,59.2,163.2,59,159.1L59,159.1z"/>
		</g>
		<g id="XMLID_26_" transform="translate(8.993 13.002)">
			<path id="XMLID_27_" class="st11" d="M41.2,152.7c-0.7-15.2-20.3-4-21.1,12.1c-0.1,4.3-5.8,7.5-5.6,3.2
				c0.4-10.3,7.1-22.7,16.1-27.9c9.1-5.3,15.6-0.4,16.1,9.3C46.9,153.6,41.3,156.7,41.2,152.7L41.2,152.7z"/>
		</g>
		<path id="XMLID_25_" class="st11" d="M33.5,178.7c0,3.8,2.8,5.5,6.2,3.5c3.7-2.3,6-6.3,6.2-10.6c0-4-2.8-5.5-6.2-3.5
			C36,170.4,33.7,174.4,33.5,178.7z"/>
	</g>
	<path id="XMLID_23_" class="st11" d="M492.7,600.1c0-5,3.5-10.9,7.8-13.4c0.3-0.2,0.7-0.3,1-0.4c0-0.4-0.1-0.9-0.1-1.5
		c0-6.6,4.6-14.6,10.3-17.8c5.8-3.2,10.3-0.6,10.3,5.9c0,0.5,0,1-0.1,1.5h0.1c3.8-2.2,7.1-0.7,7.7,3.1c0.7-1,1.6-1.9,2.7-2.5
		c2.7-1.6,4.9-0.3,4.9,2.8c-0.2,3.4-2,6.6-4.9,8.6L499.9,605l0,0C495.8,606.9,492.7,604.8,492.7,600.1z"/>
</g>
</svg>
