<svg xmlns="http://www.w3.org/2000/svg" viewBox="0 0 89 103.001">
  <defs>
    <style>
      .cls-1 {
        fill: #b7e5ff;
      }

      .cls-2 {
        fill: #333;
      }
    </style>
  </defs>
  <g id="_002-goal" data-name="002-goal" transform="translate(-19.533 0.016)">
    <g id="Group_89" data-name="Group 89" transform="translate(19.533 -0.015)">
      <path id="Path_451" data-name="Path 451" class="cls-1" d="M0,0,12.206.007l.007,12.212L.007,12.212Z" transform="translate(50.82 10.162) rotate(-56.312)"/>
      <path id="Path_441" data-name="Path 441" class="cls-2" d="M86.294,101.421a5.007,5.007,0,0,0,3.281-5.4L86.709,74.555V59.3l12.5-4.458a4.684,4.684,0,0,0,3.027-3.561l1.9-10.444,15.543,9.878L121.5,47.86,104.684,37.174a4.982,4.982,0,0,0-4.984-4.8,5.023,5.023,0,0,0-1.943.4l-13.527-8.6L82.411,27.03l12.817,8.145a5.044,5.044,0,0,0-.459,1.42L93.2,46.8,83.253,50.16a10.045,10.045,0,0,0-12.843-.469l-.523.433c-.127.11-2.9,2.628-5.2,4.714V49.47a5.217,5.217,0,0,0-4.24-5.187,5.085,5.085,0,0,0-5.924,5.006V63.083A6.518,6.518,0,0,0,65.4,67.92l.983-.881v7.517L63.531,95.9A5.118,5.118,0,0,0,66.8,101.42a35.227,35.227,0,0,0-7.821,3.24L39.837,115.493l1.67,2.944L60.648,107.6a32.448,32.448,0,0,1,31.8,0l19.141,10.833,1.67-2.944L94.114,104.66A35.36,35.36,0,0,0,86.294,101.421ZM63.131,65.406a3.129,3.129,0,0,1-5.221-2.323V49.289a1.682,1.682,0,0,1,.6-1.289A1.715,1.715,0,0,1,59.9,47.62a1.837,1.837,0,0,1,1.4,1.849V62.485l2.833-2.572s7.691-6.981,7.949-7.209l.425-.354a6.785,6.785,0,0,1,9.045.881l.745.824,13.937-4.712,1.884-12.236c.005-.029.022-.051.027-.079l2.907,1.848L98.9,50.678a1.291,1.291,0,0,1-.833.98L83.32,56.919V74.667l2.9,21.8a1.665,1.665,0,0,1-1.928,1.861A1.783,1.783,0,0,1,82.9,96.765l-3.176-23.79H73.366l-3.2,23.935a1.661,1.661,0,0,1-.734,1.167,1.7,1.7,0,0,1-1.408.208,1.746,1.746,0,0,1-1.143-1.937L69.751,74.89l.017-15.45Zm8.843,34.947a5.033,5.033,0,0,0,1.557-2.993l2.8-21h.422l2.785,20.854a5.311,5.311,0,0,0,1.607,3.143A36.023,36.023,0,0,0,71.974,100.352Z" transform="translate(-32.499 -15.437)"/>
      <path id="Path_442" data-name="Path 442" class="cls-2" d="M133.611,42.969a10.164,10.164,0,1,0-10.164,10.151A10.168,10.168,0,0,0,133.611,42.969Zm-10.164,6.768a6.768,6.768,0,1,1,6.776-6.768A6.779,6.779,0,0,1,123.447,49.737Z" transform="translate(-79.402 -20.961)"/>
      <path id="Path_443" data-name="Path 443" class="cls-2" d="M241.934,126.568h-3.388v3.384h-3.388v3.384h3.388v3.384h3.388v-3.384h3.388v-3.384h-3.388Z" transform="translate(-157.232 -80.873)"/>
      <path id="Path_444" data-name="Path 444" class="cls-2" d="M207.428,161.461v-1.692h1.694v-3.384h-1.694v-1.692H204.04v1.692h-1.694v3.384h1.694v1.692Z" transform="translate(-136.278 -98.847)"/>
      <path id="Path_445" data-name="Path 445" class="cls-2" d="M232.559,168.755h-3.388v3.384h-3.388v3.384h3.388v3.384h3.388v-3.384h3.388v-3.384h-3.388Z" transform="translate(-151.245 -107.833)"/>
      <path id="Path_446" data-name="Path 446" class="cls-2" d="M65.108,24.219H68.5V20.836h3.388V17.452H68.5V14.068H65.108v3.384H61.72v3.384h3.388Z" transform="translate(-46.474 -8.979)"/>
      <path id="Path_447" data-name="Path 447" class="cls-2" d="M24.615,16.148V14.456h1.694V11.072H24.615V9.38H21.227v1.692H19.533v3.384h1.694v1.692Z" transform="translate(-19.533 -5.983)"/>
      <path id="Path_448" data-name="Path 448" class="cls-2" d="M35.684,52.344V48.961h3.388V45.577H35.684V42.193H32.3v3.384H28.908v3.384H32.3v3.384Z" transform="translate(-25.52 -26.953)"/>
    </g>
  </g>
</svg>
