<svg xmlns="http://www.w3.org/2000/svg" xmlns:xlink="http://www.w3.org/1999/xlink" viewBox="0 0 611.17 561.816">
  <defs>
    <style>
      .cls-1 {
        fill: #a9a9aa;
      }

      .cls-2 {
        fill: #d0d2d3;
      }

      .cls-3 {
        fill: #e5e5e5;
      }

      .cls-4 {
        fill: url(#linear-gradient);
      }

      .cls-5 {
        fill: #f5f5f5;
      }

      .cls-6 {
        fill: #2e3b47;
      }

      .cls-7 {
        fill: #444f5c;
      }

      .cls-8 {
        fill: #656e79;
      }

      .cls-9 {
        fill: #b0bec5;
      }

      .cls-10 {
        fill: url(#linear-gradient-2);
      }

      .cls-11 {
        fill: url(#linear-gradient-3);
      }

      .cls-12, .cls-21, .cls-27 {
        fill: #fff;
      }

      .cls-13 {
        clip-path: url(#clip-path);
      }

      .cls-14 {
        fill: #1c4572;
      }

      .cls-15 {
        fill: url(#linear-gradient-4);
      }

      .cls-16 {
        fill: #ffe0b2;
      }

      .cls-17 {
        fill: #2e7ae5;
      }

      .cls-18 {
        fill: #0f294c;
      }

      .cls-19 {
        fill: url(#linear-gradient-5);
      }

      .cls-20 {
        fill: #80deea;
      }

      .cls-21, .cls-22 {
        opacity: 0.8;
      }

      .cls-22 {
        fill: #aed581;
      }

      .cls-23 {
        fill: #f06392;
      }

      .cls-24 {
        fill: #ffc34c;
      }

      .cls-25, .cls-29, .cls-30, .cls-33 {
        fill: none;
      }

      .cls-25 {
        stroke: #37474f;
      }

      .cls-25, .cls-29, .cls-30 {
        stroke-linecap: round;
      }

      .cls-25, .cls-27, .cls-29, .cls-30, .cls-33 {
        stroke-miterlimit: 10;
      }

      .cls-26 {
        fill: #26a69a;
      }

      .cls-27, .cls-30, .cls-33 {
        stroke: #fff;
      }

      .cls-27 {
        stroke-width: 0.75px;
      }

      .cls-28 {
        fill: #37474f;
      }

      .cls-29 {
        stroke: #f06392;
        stroke-linejoin: round;
      }

      .cls-29, .cls-33 {
        stroke-width: 2px;
      }

      .cls-30 {
        stroke-dasharray: 5.017 5.017;
      }

      .cls-31 {
        fill: #7986cb;
      }

      .cls-32 {
        fill: #ffe082;
      }
    </style>
    <linearGradient id="linear-gradient" x1="0.394" y1="0.633" x2="0.654" y2="0.162" gradientUnits="objectBoundingBox">
      <stop offset="0" stop-color="#fff" stop-opacity="0"/>
      <stop offset="0.539" stop-color="#eee" stop-opacity="0.537"/>
      <stop offset="1" stop-color="#e5e5e5"/>
    </linearGradient>
    <linearGradient id="linear-gradient-2" x1="-0.222" y1="0.785" x2="1.789" y2="-0.008" gradientUnits="objectBoundingBox">
      <stop offset="0" stop-color="#fff"/>
      <stop offset="0.235" stop-color="#c6cace" stop-opacity="0.765"/>
      <stop offset="0.494" stop-color="#8f959d" stop-opacity="0.506"/>
      <stop offset="0.717" stop-color="#666f7a" stop-opacity="0.282"/>
      <stop offset="0.893" stop-color="#4d5864" stop-opacity="0.106"/>
      <stop offset="1" stop-color="#444f5c" stop-opacity="0"/>
    </linearGradient>
    <linearGradient id="linear-gradient-3" x1="-0.875" y1="0.778" x2="3.622" y2="-0.131" xlink:href="#linear-gradient-2"/>
    <clipPath id="clip-path">
      <path id="Path_452" data-name="Path 452" d="M156.7,296.411c0,53.958,38.036,75.778,84.623,48.8,46.734-26.979,84.476-92.732,84.476-146.69s-38.036-75.778-84.623-48.8C194.442,176.7,156.553,242.453,156.7,296.411Z" transform="translate(-156.7 -138.154)"/>
    </clipPath>
    <linearGradient id="linear-gradient-4" x1="-27.774" y1="0.495" x2="-29.463" y2="0.515" gradientUnits="objectBoundingBox">
      <stop offset="0" stop-color="#fff" stop-opacity="0"/>
      <stop offset="1" stop-color="#0f294c"/>
    </linearGradient>
    <linearGradient id="linear-gradient-5" x1="-66.436" y1="2.394" x2="-57.92" y2="-0.058" xlink:href="#linear-gradient-4"/>
  </defs>
  <g id="XMLID_22_" transform="translate(-0.1 0.042)">
    <g id="XMLID_161_" transform="translate(41.937 80.81)">
      <g id="XMLID_162_" transform="translate(77.694)">
        <path id="XMLID_200_" class="cls-1" d="M321.281,377.578,268.5,408.1c-12.826,7.371-34.056,6.634-45.113-1.769l-64.426-52.189L229.729,313.3l88.456,38.184C332.633,357.823,334.108,370.207,321.281,377.578Z" transform="translate(-72.129 67.8)"/>
        <path id="XMLID_199_" class="cls-2" d="M317.006,372.34l-52.779,30.518c-12.826,7.371-34.056,6.634-45.113-1.769l-60.15-48.651L229.582,311.6l84.328,34.645C328.358,352.732,329.832,364.969,317.006,372.34Z" transform="translate(-67.854 66.993)"/>
        <path id="XMLID_198_" class="cls-3" d="M317.006,372.34l-52.779,30.518c-12.826,7.371-34.056,6.634-45.113-1.769l-60.15-48.651L229.582,311.6l84.328,34.645C328.358,352.732,329.832,364.969,317.006,372.34Z" transform="translate(-67.854 66.993)"/>
        <path id="XMLID_197_" class="cls-4" d="M317.006,372.34l-52.779,30.518c-12.826,7.371-34.056,6.634-45.113-1.769l-60.15-48.651L229.582,311.6l84.328,34.645C328.358,352.732,329.832,364.969,317.006,372.34Z" transform="translate(-67.854 66.993)"/>
        <g id="XMLID_163_">
          <path id="XMLID_196_" class="cls-1" d="M337.858,367.066,324,359.4v24.178l13.858,7.666Z" transform="translate(-323.263 89.664)"/>
          <path id="XMLID_195_" class="cls-5" d="M103.6,424.975v24.178L428.53,261.478V237.3Z" transform="translate(-89.005 31.755)"/>
          <path id="XMLID_194_" class="cls-6" d="M337.858,189.766,324,182.1l.737,261.389,13.858,7.666Z" transform="translate(-324 5.575)"/>
          <path id="XMLID_193_" class="cls-7" d="M442.888,62.466,429.177,54.8,104.1,242.475l13.858,7.666Z" transform="translate(-104.1 -54.8)"/>
          <path id="XMLID_192_" class="cls-8" d="M103.6,247.675l.737,261.389,324.93-187.675L428.53,60Z" transform="translate(-89.742 -52.334)"/>
          <g id="XMLID_164_" transform="translate(24.62 24.031)">
            <path id="XMLID_191_" class="cls-9" d="M110.9,248.16l.59,239.127,303.553-177.06L414.453,71.1Z" transform="translate(-110.9 -71.1)"/>
            <path id="XMLID_190_" class="cls-10" d="M262.18,375.3,180.8,422.624l38.331-261.831L303.46,111.7Z" transform="translate(-102.369 -51.845)"/>
            <path id="XMLID_189_" class="cls-11" d="M177.07,362.226,161,371.661l38.773-262.126,16.07-9.435Z" transform="translate(14.439 -57.346)"/>
            <g id="XMLID_165_" transform="translate(67.521 98.857)">
              <path id="XMLID_188_" class="cls-12" d="M156.6,296.264c0,53.958,37.889,75.778,84.623,48.8s84.623-92.584,84.623-146.543-37.889-75.778-84.623-48.8C194.341,176.7,156.6,242.305,156.6,296.264Z" transform="translate(-156.6 -138.154)"/>
              <g id="XMLID_166_" transform="translate(0)">
                <g id="XMLID_168_" class="cls-13" transform="translate(0)">
                  <path id="XMLID_187_" class="cls-14" d="M142.625,226.5s27.716-13.858,43.049,28.306c10.025,27.716,14.448,51.894,17.4,60,1.032,2.8,12.089,11.794,18.723,19.46,6.929,7.961,19.46,23.293,17.249,29.043-1.474,3.981-48.209-12.089-48.209-12.089L200.269,404s-14.3,22.851-30.223,26.832c0,0,.885-36.709,0-55.58C168.867,356.385,142.625,226.5,142.625,226.5Z" transform="translate(-49.45 -97.288)"/>
                  <path id="XMLID_186_" class="cls-15" d="M176.483,334.478C171.913,322.389,152.6,244.4,152.6,244.4l16.659,97.3h0s19.608,6.782,33.908,10.467h0S180.169,344.651,176.483,334.478Z" transform="translate(-28.023 -87.765)"/>
                  <path id="XMLID_185_" class="cls-12" d="M197.746,230.2a56.99,56.99,0,0,0-8.846,7.371s17.544,25.5,20.492,55.138c2.949,29.78.147,87.719.147,87.719s34.351,7.371,46.44-11.647c0,0-2.359-66.195-14.3-124.134Z" transform="translate(-134.351 -94.5)"/>
                  <path id="XMLID_184_" class="cls-12" d="M198.494,242.585V228.874l7.224-1.474,8.551,18.723a1.428,1.428,0,0,1-1.917,1.917Z" transform="translate(-106.941 -95.828)"/>
                  <path id="XMLID_183_" class="cls-16" d="M242.926,197.174s6.045,52.042-28.159,52.189h-1.622v13.711L188.82,249.658V210.147c0-21.524,12.974-25.947,27.274-25.947C230.248,184.2,242.926,191.277,242.926,197.174Z" transform="translate(-121.593 -116.316)"/>
                  <path id="XMLID_182_" class="cls-14" d="M204.306,218.874s8.993-7.077,8.993-16.807c0,0,23.146,14.006,44.818,4.275a8.937,8.937,0,0,0,4.275-12.089c-5.013-10.615-16.954-28.453-39.658-28.453a15.47,15.47,0,0,0-11.794,5.307,12.258,12.258,0,0,0-7.666-1.032c-4.128,1.032-17.544,5.455-17.4,31.992,0,27.716,18.428,29.928,18.428,29.928Z" transform="translate(-137.226 -125.043)"/>
                  <circle id="XMLID_181_" class="cls-16" cx="8.403" cy="8.403" r="8.403" transform="translate(56.612 92.799)"/>
                  <path id="XMLID_180_" class="cls-12" d="M238.933,243.344l-20.64-11.352a7.017,7.017,0,0,1-3.686-6.192h0s-5.307.885-5.307,6.045c0,4.275,10.32,20.787,14.3,27.127a2,2,0,0,0,3.243.147Z" transform="translate(-147.38 -96.587)"/>
                  <path id="XMLID_179_" class="cls-17" d="M199.377,246.4l18.281,86.54-11.352,20.05L192.3,337.068l.295-86.982Z" transform="translate(-101.042 -86.817)"/>
                  <path id="XMLID_178_" class="cls-17" d="M217.379,240.354v10.172l-6.782,3.686-5.9-8.993,5.9-7.519Z" transform="translate(-119.044 -90.943)"/>
                  <path id="XMLID_177_" class="cls-12" d="M177.3,305.2,245.7,344.416l-52.189,29.928L122.6,336.9Z" transform="translate(-26.33 -58.929)"/>
                  <g id="XMLID_174_" transform="translate(102.462 283.495)">
                    <path id="XMLID_176_" class="cls-16" d="M181.923,339.222s14.743-11.942,23.883-7.961c3.243,1.474-3.981,6.045-6.929,8.109l14.6,7.814s-15.48,16.217-35.972,9.878Z" transform="translate(-177.5 -330.449)"/>
                  </g>
                  <path id="XMLID_173_" class="cls-18" d="M274.139,332.96c-2.506,52.779-2.8,70.47-2.8,70.47s-43.344-2.506-55.138-25.063l3.391-64.868Z" transform="translate(-192.759 -54.993)"/>
                  <path id="XMLID_172_" class="cls-14" d="M274.139,332.96c-2.506,52.779-2.8,70.47-2.8,70.47s-43.344-2.506-55.138-25.063l3.391-64.868Z" transform="translate(-192.759 -54.993)"/>
                  <path id="XMLID_171_" class="cls-14" d="M282.848,381.227s-21.23-7.224-27.127-10.172l-.442-.295V354.838c0-25.21.442-96.712-23.883-121.038,0,0-24.031,16.07-28.748,31.7-2.064,6.487-5.013,71.945-5.16,73.714-.737,19.608,3.538,53.664,58.086,63.836a154.153,154.153,0,0,0,20.2,2.506S284.764,400.835,282.848,381.227Z" transform="translate(-174.046 -92.792)"/>
                  <path id="XMLID_170_" class="cls-19" d="M231.532,345.259s.737-6.192-6.634-9.73c-.737-22.114-2.064-48.209-8.7-72.829,0,0,3.391,36.857,4.128,75.335,0,.442,5.16.442,6.192,4.423,0,.295.147.59.147.885a11.948,11.948,0,0,1,0,3.243s9.73,6.929,16.659,10.32v-5.75Z" transform="translate(-161.946 -79.086)"/>
                  <path id="XMLID_169_" class="cls-16" d="M157.847,310.323s-12.236-2.8-16.807,6.782c-.885,2.064,11.057-.295,11.057-.295l17.1,9.878C169.347,326.687,171.116,314.3,157.847,310.323Z" transform="translate(22.899 -56.681)"/>
                </g>
              </g>
            </g>
          </g>
        </g>
      </g>
    </g>
    <g id="XMLID_157_" transform="translate(351.535 176.933)">
      <g id="XMLID_158_" transform="translate(0)">
        <circle id="XMLID_160_" class="cls-20" cx="39.068" cy="39.068" r="39.068" transform="translate(0)"/>
        <path id="XMLID_159_" class="cls-20" d="M171.506,158.3,157.5,179.53l28.159-7.371Z" transform="translate(-157.5 -101.835)"/>
      </g>
    </g>
    <g id="XMLID_155_" transform="translate(177.423 33.783)">
      <path id="XMLID_156_" class="cls-21" d="M248.856,185.217l68.7-39.068a5.781,5.781,0,0,0,2.8-4.718V28.354a5.485,5.485,0,0,0-8.256-4.718L245.76,61.23a10.286,10.286,0,0,0-5.16,8.846V180.352A5.549,5.549,0,0,0,248.856,185.217Z" transform="translate(-240.6 -22.901)"/>
    </g>
    <g id="XMLID_153_" transform="translate(193.782 57.044)">
      <path id="XMLID_154_" class="cls-22" d="M254.418,141.614l43.638-24.768a3.539,3.539,0,0,0,1.769-2.949V42.1a3.439,3.439,0,0,0-5.16-2.949L252.649,63.035a6.322,6.322,0,0,0-3.243,5.6v70.028A3.3,3.3,0,0,0,254.418,141.614Z" transform="translate(-249.4 -38.68)"/>
    </g>
    <g id="XMLID_136_" transform="translate(34.271 115.304)">
      <path id="XMLID_152_" class="cls-21" d="M286.094,345.339l157.452-90.963a7.934,7.934,0,0,0,3.981-6.782V86.015a7.866,7.866,0,0,0-11.794-6.782l-154.062,88.9a14.736,14.736,0,0,0-7.371,12.679V338.558C274.447,344.6,280.934,348.435,286.094,345.339Z" transform="translate(-274.3 -78.198)"/>
      <g id="XMLID_137_" transform="translate(21.377 39.102)">
        <path id="XMLID_151_" class="cls-23" d="M291.749,154.668,329.2,133a1.694,1.694,0,0,0,.885-1.622V106.607a1.864,1.864,0,0,0-2.8-1.622l-36.709,21.23a3.539,3.539,0,0,0-1.769,2.949v23.883A2.1,2.1,0,0,0,291.749,154.668Z" transform="translate(-199.606 -104.72)"/>
        <path id="XMLID_150_" class="cls-24" d="M290.811,211.571l28.748-16.659a1.5,1.5,0,0,0,.737-1.179V164.247a1.451,1.451,0,0,0-2.211-1.179l-28.159,16.217a2.5,2.5,0,0,0-1.327,2.359v28.748A1.451,1.451,0,0,0,290.811,211.571Z" transform="translate(-189.529 -77.147)"/>
        <line id="XMLID_149_" class="cls-25" x1="130.621" y2="75.335" transform="translate(0 45.525)"/>
        <line id="XMLID_148_" class="cls-25" x1="130.621" y2="75.483" transform="translate(0 55.108)"/>
        <line id="XMLID_147_" class="cls-25" x1="130.621" y2="75.335" transform="translate(0 64.838)"/>
        <line id="XMLID_146_" class="cls-25" x1="130.621" y2="75.335" transform="translate(0 74.568)"/>
        <line id="XMLID_145_" class="cls-25" x1="75.188" y2="43.344" transform="translate(0 38.301)"/>
        <line id="XMLID_144_" class="cls-25" x1="75.188" y2="43.344" transform="translate(0 48.031)"/>
        <line id="XMLID_143_" class="cls-25" x1="75.188" y2="43.491" transform="translate(0 57.614)"/>
        <line id="XMLID_142_" class="cls-25" x1="130.621" y2="75.335" transform="translate(0 35.353)"/>
        <line id="XMLID_141_" class="cls-25" x1="89.341" y2="51.6" transform="translate(0 108.034)"/>
        <line id="XMLID_140_" class="cls-25" x1="89.341" y2="51.6" transform="translate(0 117.617)"/>
        <line id="XMLID_139_" class="cls-25" x1="89.341" y2="51.6" transform="translate(0 127.347)"/>
        <line id="XMLID_138_" class="cls-25" x1="89.341" y2="51.6" transform="translate(0 137.078)"/>
      </g>
    </g>
    <g id="XMLID_117_" transform="translate(387.212 305.639)">
      <path id="XMLID_135_" class="cls-21" d="M106.556,369.469l68.7-39.068a5.781,5.781,0,0,0,2.8-4.718V212.754a5.485,5.485,0,0,0-8.256-4.718L103.46,245.63a10.286,10.286,0,0,0-5.16,8.846V364.752A5.465,5.465,0,0,0,106.556,369.469Z" transform="translate(-98.3 -207.301)"/>
      <g id="XMLID_118_" transform="translate(11.499 25.208)">
        <g id="XMLID_131_">
          <line id="XMLID_134_" class="cls-25" x1="56.76" y2="32.729" transform="translate(0)"/>
          <line id="XMLID_133_" class="cls-25" x1="56.76" y2="32.729" transform="translate(0 7.371)"/>
          <line id="XMLID_132_" class="cls-25" x1="56.76" y2="32.729" transform="translate(0 14.595)"/>
        </g>
        <g id="XMLID_127_" transform="translate(0 21.672)">
          <line id="XMLID_130_" class="cls-25" x1="56.76" y2="32.729" transform="translate(0)"/>
          <line id="XMLID_129_" class="cls-25" x1="56.76" y2="32.729" transform="translate(0 7.371)"/>
          <line id="XMLID_128_" class="cls-25" x1="56.76" y2="32.876" transform="translate(0 14.595)"/>
        </g>
        <g id="XMLID_123_" transform="translate(0 43.344)">
          <line id="XMLID_126_" class="cls-25" x1="56.76" y2="32.876" transform="translate(0)"/>
          <line id="XMLID_125_" class="cls-25" x1="56.76" y2="32.729" transform="translate(0 7.371)"/>
          <line id="XMLID_124_" class="cls-25" x1="56.76" y2="32.876" transform="translate(0 14.595)"/>
        </g>
        <g id="XMLID_119_" transform="translate(0 65.015)">
          <line id="XMLID_122_" class="cls-25" x1="56.76" y2="32.876" transform="translate(0)"/>
          <line id="XMLID_121_" class="cls-25" x1="56.76" y2="32.729" transform="translate(0 7.371)"/>
          <line id="XMLID_120_" class="cls-25" x1="56.76" y2="32.729" transform="translate(0 14.743)"/>
        </g>
      </g>
    </g>
    <g id="XMLID_104_" transform="translate(294.623 -0.042)">
      <path id="XMLID_116_" class="cls-26" d="M158.7,142.73l84.181-48.651a4.038,4.038,0,0,0,2.064-3.686V4.148A4.213,4.213,0,0,0,238.749.462L156.485,47.934a7.934,7.934,0,0,0-3.981,6.782v84.328A4.067,4.067,0,0,0,158.7,142.73Z" transform="translate(-152.5 0.042)"/>
      <g id="XMLID_105_" transform="translate(19.907 38.348)">
        <g id="XMLID_107_" transform="translate(0)">
          <path id="XMLID_109_" class="cls-27" d="M181.48,92.652a24.952,24.952,0,0,0,11.942-3.538c13.858-7.961,25.21-27.569,25.21-43.638,0-8.256-2.949-14.448-8.109-17.544-5.307-3.1-12.089-2.506-19.313,1.622C177.352,37.514,166,57.122,166,73.191c0,8.256,2.949,14.448,8.109,17.544A14.117,14.117,0,0,0,181.48,92.652ZM203,30.29a9.96,9.96,0,0,1,5.16,1.327c3.833,2.211,6.045,7.077,6.045,13.711,0,14.743-10.32,32.581-23,39.953-5.75,3.243-11.057,3.981-14.89,1.622-3.833-2.211-6.045-7.077-6.045-13.711,0-14.743,10.32-32.581,23-39.953A20.892,20.892,0,0,1,203,30.29Z" transform="translate(-166 -25.969)"/>
          <path id="XMLID_108_" class="cls-27" d="M197.881,66.56V35.6L179.6,61.695Z" transform="translate(-165.3 -21.402)"/>
        </g>
      </g>
    </g>
    <g id="XMLID_97_" transform="translate(80.563 337.509)">
      <path id="XMLID_103_" class="cls-21" d="M299.329,383.542l91.11-52.632a4.645,4.645,0,0,0,2.211-3.981V233.461a4.583,4.583,0,0,0-6.782-3.981l-89.194,51.452A8.368,8.368,0,0,0,292.4,288.3v91.258A4.644,4.644,0,0,0,299.329,383.542Z" transform="translate(-292.4 -228.919)"/>
      <g id="XMLID_100_" transform="translate(8.846 68.7)">
        <path id="XMLID_102_" class="cls-28" d="M336.375,309.275l12.384-21.524L373.232,301.9a3.136,3.136,0,1,0,3.1-5.455L346.548,279.2l-12.384,21.524-31.255-17.986a3.136,3.136,0,0,0-3.1,5.455Z" transform="translate(-295.095 -273.772)"/>
        <path id="XMLID_101_" class="cls-28" d="M343.858,307.188a3.023,3.023,0,0,0,3.1-3.1V288.465l12.384-7.077a3.294,3.294,0,0,0,1.179-4.275,3.153,3.153,0,0,0-4.275-1.179l-15.48,8.846v19.166A3.061,3.061,0,0,0,343.858,307.188Z" transform="translate(-340.762 -275.518)"/>
      </g>
      <line id="XMLID_99_" class="cls-29" x1="20.935" y2="12.089" transform="translate(66.785 25.624)"/>
      <line id="XMLID_98_" class="cls-29" x1="7.519" y2="4.275" transform="translate(47.029 44.495)"/>
    </g>
    <g id="XMLID_85_" transform="translate(477.483 144.351)">
      <g id="XMLID_94_" transform="translate(0 11.404)">
        <path id="XMLID_96_" class="cls-30" d="M69.221,206.571c7.814.737,16.07-2.8,23.441-10.172,16.217-16.217,24.178-46.292,18.134-68.554-3.538-13.121-11.5-21.23-21.672-22.114-7.814-.737-16.07,2.8-23.441,10.172C49.466,132.12,41.5,162.2,47.549,184.457,51.088,197.431,59.049,205.539,69.221,206.571Z" transform="translate(-45.531 -105.635)"/>
      </g>
      <path id="XMLID_93_" class="cls-12" d="M50.631,181.541c5.455,20.345,21.967,24.62,36.857,9.73s22.409-43.491,16.954-63.689c-5.455-20.345-21.967-24.62-36.857-9.73S45.029,161.2,50.631,181.541Z" transform="translate(-43.747 -92.642)"/>
      <g id="XMLID_90_" transform="translate(18.226 34.382)">
        <path id="XMLID_92_" class="cls-31" d="M60,145.663c.147,8.256,6.045,11.5,12.974,7.224,7.077-4.275,12.679-14.3,12.531-22.556s-6.045-11.5-12.974-7.224C65.456,127.382,59.853,137.407,60,145.663Z" transform="translate(-57.78 -121.221)"/>
        <path id="XMLID_91_" class="cls-31" d="M72.794,143.436c8.7-5.16,15.775-1.327,16.07,8.846L57.609,171.152C57.314,160.98,64.243,148.6,72.794,143.436Z" transform="translate(-57.6 -111.77)"/>
      </g>
      <g id="XMLID_86_" transform="translate(50.08)">
        <g id="XMLID_87_">
          <circle id="XMLID_89_" class="cls-32" cx="18.281" cy="18.281" r="18.281"/>
          <path id="XMLID_88_" class="cls-32" d="M54.787,115.8,48.3,125.678l13.121-3.391Z" transform="translate(-48.3 -89.411)"/>
        </g>
      </g>
    </g>
    <g id="XMLID_73_" transform="translate(477.483 268.633)">
      <g id="XMLID_82_" transform="translate(0 11.551)">
        <path id="XMLID_84_" class="cls-30" d="M69.221,290.971c7.814.737,16.07-2.8,23.441-10.172,16.217-16.217,24.178-46.292,18.134-68.554-3.538-13.121-11.5-21.23-21.672-22.114-7.814-.737-16.07,2.8-23.441,10.172C49.466,216.52,41.5,246.6,47.549,268.857,51.088,281.831,59.049,289.939,69.221,290.971Z" transform="translate(-45.531 -190.035)"/>
      </g>
      <path id="XMLID_81_" class="cls-12" d="M50.631,265.841c5.455,20.345,21.967,24.62,36.857,9.73s22.409-43.491,16.954-63.689c-5.455-20.345-21.967-24.62-36.857-9.73S45.029,245.644,50.631,265.841Z" transform="translate(-43.747 -176.942)"/>
      <g id="XMLID_78_" transform="translate(18.226 34.382)">
        <path id="XMLID_80_" class="cls-31" d="M60,229.963c.147,8.256,6.045,11.5,12.974,7.224,7.077-4.275,12.679-14.3,12.531-22.556s-6.045-11.5-12.974-7.224C65.456,211.682,59.853,221.854,60,229.963Z" transform="translate(-57.78 -205.521)"/>
        <path id="XMLID_79_" class="cls-31" d="M72.794,227.736c8.7-5.16,15.775-1.327,16.07,8.846L57.609,255.452C57.314,245.427,64.243,233.043,72.794,227.736Z" transform="translate(-57.6 -196.07)"/>
      </g>
      <g id="XMLID_74_" transform="translate(50.08)">
        <g id="XMLID_75_">
          <circle id="XMLID_77_" class="cls-32" cx="18.281" cy="18.281" r="18.281"/>
          <path id="XMLID_76_" class="cls-32" d="M54.787,200.2,48.3,210.078l13.121-3.391Z" transform="translate(-48.3 -173.663)"/>
        </g>
      </g>
    </g>
    <g id="XMLID_61_" transform="translate(477.483 27.147)">
      <g id="XMLID_70_" transform="translate(0 11.404)">
        <path id="XMLID_72_" class="cls-30" d="M69.221,127.071c7.814.737,16.07-2.8,23.441-10.172,16.217-16.217,24.178-46.292,18.134-68.554-3.538-13.121-11.5-21.23-21.672-22.114-7.814-.737-16.07,2.8-23.441,10.172C49.466,52.62,41.5,82.7,47.549,104.957,51.088,117.931,59.049,126.039,69.221,127.071Z" transform="translate(-45.531 -26.135)"/>
      </g>
      <path id="XMLID_69_" class="cls-12" d="M50.731,102.041c5.455,20.345,21.967,24.62,36.857,9.73,14.743-14.89,22.262-43.344,16.807-63.689s-21.967-24.62-36.857-9.73C52.8,53.243,45.129,81.7,50.731,102.041Z" transform="translate(-43.848 -13.142)"/>
      <g id="XMLID_66_" transform="translate(18.226 34.382)">
        <path id="XMLID_68_" class="cls-31" d="M60,66.163c.147,8.256,6.045,11.5,12.974,7.224,7.077-4.275,12.679-14.3,12.531-22.556s-6.045-11.5-12.974-7.224C65.456,47.882,59.853,57.907,60,66.163Z" transform="translate(-57.78 -41.721)"/>
        <path id="XMLID_67_" class="cls-31" d="M72.794,63.936c8.7-5.16,15.775-1.327,16.07,8.846L57.609,91.652C57.314,81.48,64.243,69.1,72.794,63.936Z" transform="translate(-57.6 -32.27)"/>
      </g>
      <g id="XMLID_62_" transform="translate(50.08)">
        <g id="XMLID_63_">
          <circle id="XMLID_65_" class="cls-32" cx="18.281" cy="18.281" r="18.281"/>
          <path id="XMLID_64_" class="cls-32" d="M54.787,36.3,48.3,46.178l13.121-3.391Z" transform="translate(-48.3 -9.911)"/>
        </g>
      </g>
    </g>
    <path id="XMLID_60_" class="cls-33" d="M314.1,73.476c0,1.622,1.032,2.211,2.506,1.474a5.44,5.44,0,0,0,2.506-4.275c0-1.622-1.032-2.211-2.506-1.474A5.679,5.679,0,0,0,314.1,73.476Z" transform="translate(-170.29 32.691)"/>
    <path id="XMLID_59_" class="cls-33" d="M95,39.976c0,1.622,1.032,2.211,2.506,1.474a5.44,5.44,0,0,0,2.506-4.275c0-1.622-1.032-2.211-2.506-1.474A5.084,5.084,0,0,0,95,39.976Z" transform="translate(371.823 16.803)"/>
    <path id="XMLID_58_" class="cls-33" d="M139.3,336.676c0,1.622,1.032,2.211,2.506,1.474a5.084,5.084,0,0,0,2.506-4.275c0-1.622-1.032-2.211-2.506-1.474A5.941,5.941,0,0,0,139.3,336.676Z" transform="translate(262.213 157.52)"/>
    <path id="XMLID_57_" class="cls-33" d="M410.9,274.376c0,1.622,1.032,2.211,2.506,1.474a5.44,5.44,0,0,0,2.506-4.275c0-1.622-1.032-2.211-2.506-1.474A5.941,5.941,0,0,0,410.9,274.376Z" transform="translate(-409.8 127.973)"/>
    <path id="XMLID_56_" class="cls-33" d="M218.9,26.376c0,1.622,1.032,2.211,2.506,1.474a5.44,5.44,0,0,0,2.506-4.275c0-1.622-1.032-2.211-2.506-1.474A5.5,5.5,0,0,0,218.9,26.376Z" transform="translate(65.26 10.353)"/>
    <path id="XMLID_55_" class="cls-33" d="M75.6,280.876c0,1.622,1.032,2.211,2.506,1.474a5.44,5.44,0,0,0,2.506-4.275c0-1.622-1.032-2.211-2.506-1.474A5.941,5.941,0,0,0,75.6,280.876Z" transform="translate(419.824 131.056)"/>
    <path id="XMLID_54_" class="cls-33" d="M21.9,162.576c0,1.622,1.032,2.211,2.506,1.474a5.44,5.44,0,0,0,2.506-4.275c0-1.622-1.032-2.211-2.506-1.474A5.679,5.679,0,0,0,21.9,162.576Z" transform="translate(552.692 74.949)"/>
    <path id="XMLID_53_" class="cls-33" d="M301,19.876c0,1.622,1.032,2.211,2.506,1.474a5.44,5.44,0,0,0,2.506-4.275c0-1.622-1.032-2.211-2.506-1.474A5.084,5.084,0,0,0,301,19.876Z" transform="translate(-137.877 7.27)"/>
    <path id="XMLID_52_" class="cls-33" d="M375.6,309.176c0,1.622,1.032,2.211,2.506,1.474a5.44,5.44,0,0,0,2.506-4.275c0-1.622-1.032-2.211-2.506-1.474A5.941,5.941,0,0,0,375.6,309.176Z" transform="translate(-322.458 144.478)"/>
    <path id="XMLID_51_" class="cls-33" d="M384.9,355.876c0,1.622,1.032,2.211,2.506,1.474a5.44,5.44,0,0,0,2.506-4.275c0-1.622-1.032-2.211-2.506-1.474A5.084,5.084,0,0,0,384.9,355.876Z" transform="translate(-345.469 166.626)"/>
    <path id="XMLID_50_" class="cls-33" d="M321.5,71.41c0,5.307,3.686,7.519,8.256,4.865s8.256-9.14,8.256-14.448-3.686-7.519-8.256-4.865C325.186,59.763,321.5,66.1,321.5,71.41Z" transform="translate(-200.099 26.502)"/>
    <path id="XMLID_49_" class="cls-33" d="M85.6,20.41c0,5.307,3.686,7.519,8.256,4.865s8.256-9.14,8.256-14.448-3.686-7.519-8.256-4.865C89.433,8.763,85.6,15.1,85.6,20.41Z" transform="translate(383.582 2.314)"/>
    <path id="XMLID_48_" class="cls-33" d="M40,287.51c0,5.307,3.686,7.519,8.256,4.865s8.256-9.141,8.256-14.448-3.686-7.519-8.256-4.865C43.833,275.715,40,282.2,40,287.51Z" transform="translate(496.409 128.993)"/>
    <path id="XMLID_47_" class="cls-33" d="M107.5,344.71c0,5.307,3.686,7.519,8.256,4.865s8.256-9.141,8.256-14.448-3.686-7.519-8.256-4.865S107.5,339.4,107.5,344.71Z" transform="translate(329.395 156.121)"/>
    <path id="XMLID_46_" class="cls-33" d="M360.4,365.41c0,5.307,3.686,7.519,8.256,4.865s8.256-9.141,8.256-14.448-3.686-7.519-8.256-4.865C364.086,353.763,360.4,360.1,360.4,365.41Z" transform="translate(-296.349 165.939)"/>
    <path id="XMLID_45_" class="cls-33" d="M1.1,152.21c0,5.307,3.686,7.519,8.256,4.865s8.256-9.14,8.256-14.448-3.686-7.519-8.256-4.865S1.1,146.9,1.1,152.21Z" transform="translate(592.658 64.823)"/>
    <g id="XMLID_39_" transform="translate(41.937 69.753)">
      <path id="XMLID_42_" class="cls-12" d="M349.97,92.265h0c2.064-1.179,3.1-4.718,1.622-5.455l-.885-.442c-1.769-1.032-1.769-4.423,0-7.519l4.718-8.109c1.769-3.1,4.718-4.865,6.487-3.833l.295.147c2.064,1.179,5.6-2.506,5.6-5.9h0a10.206,10.206,0,0,1,4.57-7.961l6.634-3.833c2.506-1.474,4.57-.295,4.57,2.654h0c0,3.1,3.243,2.8,5.013-.442l.147-.147c1.769-3.1,4.718-4.865,6.487-3.833l4.718,2.654c1.769,1.032,1.769,4.423,0,7.519l-.295.442c-1.622,2.8-.442,5.455,1.917,4.128h0c2.506-1.474,4.57-.295,4.57,2.654v7.666a10.206,10.206,0,0,1-4.57,7.961l-1.179.737c-2.506,1.474-3.686,5.6-1.917,6.634h0c1.769,1.032,1.769,4.423,0,7.519l-4.718,8.109c-1.769,3.1-4.718,4.865-6.487,3.833h0c-1.327-.737-3.538,1.622-3.538,3.833v.59a10.206,10.206,0,0,1-4.57,7.961l-6.634,3.833c-2.506,1.474-4.57.295-4.57-2.654v-.147c0-2.654-2.8-2.359-4.423.442h0c-1.769,3.1-4.718,4.865-6.487,3.833l-4.718-2.654c-1.769-1.032-1.769-4.423,0-7.519h0c1.769-3.1.59-5.75-1.917-4.423l-.442.295c-2.506,1.474-4.57.295-4.57-2.654v-7.666A10.523,10.523,0,0,1,349.97,92.265Zm23.294,10.91c9.435-3.391,17.4-17.249,15.627-27.127-1.032-5.455-5.16-7.961-10.467-6.045-9.435,3.391-17.4,17.249-15.627,27.127C363.828,102.585,367.956,104.944,373.264,103.175Z" transform="translate(-345.4 -47.3)"/>
      <path id="XMLID_40_" class="cls-12" d="M359.5,83.272c0,6.045,4.275,8.4,9.435,5.455s9.435-10.32,9.435-16.364-4.275-8.4-9.435-5.455C363.628,70,359.5,77.227,359.5,83.272Z" transform="translate(-338.418 -38.601)"/>
    </g>
    <path id="XMLID_30_" class="cls-12" d="M121.079,104l2.064-1.179v-.737a7.279,7.279,0,0,1,3.391-5.9l19.608-11.352c1.917-1.032,3.391-.147,3.391,1.917V97.813a7.279,7.279,0,0,1-3.391,5.9l-19.608,11.352c-1.917,1.032-3.391.147-3.391-1.917v-.737l-2.064,1.179a.765.765,0,0,1-1.179-.737v-6.782A3.651,3.651,0,0,1,121.079,104Zm19.313.295,4.128-2.359a4.762,4.762,0,0,0,2.064-3.686V90c0-1.327-.885-1.917-2.064-1.179l-4.128,2.359Zm-7.077,4.128,6.045-3.538V91.621l-6.045,3.538Zm-7.224,1.622c0,1.327,1.032,1.917,2.064,1.179l4.128-2.359V95.6l-4.128,2.359a4.762,4.762,0,0,0-2.064,3.686Z" transform="translate(285.593 40.052)"/>
    <g id="XMLID_24_" transform="translate(404.016 29.212)">
      <g id="XMLID_28_" transform="translate(0)">
        <path id="XMLID_29_" class="cls-12" d="M151.524,40.882c-.295-11.942-8.551-17.544-19.46-11.2-10.91,6.192-19.018,21.23-19.46,33.613-.147,4.275-5.75,7.519-5.6,3.243.442-15.922,11.057-35.235,25.063-43.344s24.62-1.032,25.063,14.448c.147,4.128-5.455,7.371-5.6,3.243Z" transform="translate(-106.998 -19.801)"/>
      </g>
      <g id="XMLID_26_" transform="translate(8.993 13.002)">
        <path id="XMLID_27_" class="cls-12" d="M139.78,43.333c-.737-15.185-20.345-3.981-21.082,12.089-.147,4.275-5.75,7.519-5.6,3.243.442-10.32,7.077-22.7,16.07-27.864,9.14-5.307,15.627-.442,16.07,9.288.295,4.128-5.307,7.224-5.455,3.243Z" transform="translate(-113.092 -28.62)"/>
      </g>
      <path id="XMLID_25_" class="cls-12" d="M119.7,51.083c0,3.833,2.8,5.455,6.192,3.538a13.427,13.427,0,0,0,6.192-10.615c0-3.981-2.8-5.455-6.192-3.538A13.057,13.057,0,0,0,119.7,51.083Z" transform="translate(-100.679 -10.394)"/>
    </g>
    <path id="XMLID_23_" class="cls-12" d="M60.5,324.516c0-5.013,3.538-10.91,7.814-13.416a7.18,7.18,0,0,1,1.032-.442c0-.442-.147-.885-.147-1.474,0-6.634,4.57-14.6,10.32-17.839s10.32-.59,10.32,5.9a5.016,5.016,0,0,1-.147,1.474h.147c3.833-2.211,7.077-.737,7.666,3.1a8.571,8.571,0,0,1,2.654-2.506c2.654-1.622,4.865-.295,4.865,2.8a11.2,11.2,0,0,1-4.865,8.551L67.724,329.382h0C63.6,331.3,60.5,329.234,60.5,324.516Z" transform="translate(417.675 137.541)"/>
  </g>
</svg>
