<svg xmlns="http://www.w3.org/2000/svg" viewBox="0 0 1030.365 1155.927">
  <defs>
    <style>
      .cls-1, .cls-2 {
        fill: #e8f6fe;
      }

      .cls-1 {
        opacity: 0.5;
      }
    </style>
  </defs>
  <g id="Group_91" data-name="Group 91" transform="translate(54.417 -115.412)">
    <path id="Path_418" data-name="Path 418" class="cls-1" d="M-573.455-6036.035s87.418-1.219,152.079-21.959,124.716-188.4,292.8-228.144,298.586,46.341,346.485,97.6,69.541,157.382,81.741,211.063,19.6,208.574,98.821,265.963-15.521,388.471-25.62,406.675-96.881,109.588-251.378,143.775-341.773,21.906-427.994-7.236-197.2-45.565-263.628-151.208S-573.455-6036.035-573.455-6036.035Z" transform="translate(546.132 6411.717)"/>
    <path id="Path_415" data-name="Path 415" class="cls-2" d="M-574.971-6050.6s82.525-1.151,143.566-20.73,117.734-177.858,276.413-215.373S126.88-6242.96,172.1-6194.568,237.746-6046,249.263-5995.32s18.5,196.9,93.29,251.075-14.652,366.725-24.186,383.911S226.909-5256.881,81.06-5224.608s-322.641,20.68-404.036-6.831-186.165-43.015-248.871-142.743S-574.971-6050.6-574.971-6050.6Z" transform="translate(574.971 6444.07)"/>
  </g>
</svg>
