<svg xmlns="http://www.w3.org/2000/svg" viewBox="0 0 76 84">
  <defs>
    <style>
      .cls-1 {
        fill: #b7e5ff;
      }

      .cls-2 {
        fill: #333;
      }
    </style>
  </defs>
  <g id="Group_97" data-name="Group 97" transform="translate(-508 -1464)">
    <rect id="Rectangle_42" data-name="Rectangle 42" class="cls-1" width="46.143" height="59.612" transform="translate(516.143 1480.258)"/>
    <path id="Path_438" data-name="Path 438" class="cls-2" d="M72.42,8.129H61.313a4.066,4.066,0,0,0-3.822-2.71H53.42V4.064A4.073,4.073,0,0,0,49.349,0H41.206a4.073,4.073,0,0,0-4.071,4.065V5.42H33.063a4.066,4.066,0,0,0-3.822,2.71H18.135a4.073,4.073,0,0,0-4.072,4.065V79.935A4.073,4.073,0,0,0,18.135,84H72.42a4.073,4.073,0,0,0,4.072-4.065V12.194A4.073,4.073,0,0,0,72.42,8.129ZM31.706,9.484a1.358,1.358,0,0,1,1.357-1.355h6.786V4.065A1.358,1.358,0,0,1,41.206,2.71h8.143a1.358,1.358,0,0,1,1.357,1.355V8.129h6.786A1.358,1.358,0,0,1,58.85,9.484v4.065A1.358,1.358,0,0,1,57.492,14.9H33.063a1.358,1.358,0,0,1-1.357-1.355V9.484ZM73.777,79.935A1.358,1.358,0,0,1,72.42,81.29H18.135a1.357,1.357,0,0,1-1.357-1.355V12.194a1.358,1.358,0,0,1,1.357-1.355H28.992v2.71a4.073,4.073,0,0,0,4.072,4.065H57.492a4.073,4.073,0,0,0,4.072-4.065v-2.71H72.42a1.358,1.358,0,0,1,1.357,1.355V79.935Z" transform="translate(493.937 1464)"/>
    <path id="Path_439" data-name="Path 439" class="cls-2" d="M90.18,82.506H76.608V79.8H80.68V70.313H69.823V79.8h4.072v2.71H60.322v5.419H56.251V97.41H67.108V87.926H63.037v-2.71H73.894v2.71H69.822V97.41H80.679V87.926H76.608v-2.71H87.465v2.71H83.394V97.41h4.072v2.71H73.894v5.419H69.822v9.484H80.679v-9.484H76.608v-2.71H90.179V97.409h4.072V87.926H90.179V82.506ZM72.537,73.023h5.429v4.064H72.537ZM64.394,94.7H58.965V90.635h5.429Zm13.571,0H72.537V90.635h5.429Zm0,17.613H72.537v-4.065h5.429ZM91.537,94.7H86.108V90.635h5.429Z" transform="translate(463.963 1414.01)"/>
    <path id="Path_440" data-name="Path 440" class="cls-2" d="M252.51,32.813a4.073,4.073,0,0,0-4.072,4.065V94l4.072,12.194L256.581,94V36.877A4.073,4.073,0,0,0,252.51,32.813Zm-.832,62.322h1.662l-.831,2.49Zm2.189-2.71h-2.714V47.716h2.714Zm0-47.419h-2.714V42.3h2.714Zm-2.714-5.419v-2.71a1.357,1.357,0,0,1,2.715,0v2.71Z" transform="translate(327.419 1440.671)"/>
  </g>
</svg>
