<svg xmlns="http://www.w3.org/2000/svg" viewBox="0 0 71.609 76.1">
  <defs>
    <style>
      .cls-1 {
        fill: #1739e6;
      }
    </style>
  </defs>
  <g id="XMLID_115_" transform="translate(0 -0.5)">
    <g id="XMLID_184_" transform="translate(23.965 12.106)">
      <g id="XMLID_189_">
        <path id="XMLID_193_" class="cls-1" d="M117.589,45.2H93.442a1.142,1.142,0,0,0,0,2.285h24.146a1.153,1.153,0,0,0,1.142-1.142A1.136,1.136,0,0,0,117.589,45.2Z" transform="translate(-92.3 -45.2)"/>
      </g>
    </g>
    <g id="XMLID_181_" transform="translate(14.877 12.106)">
      <g id="XMLID_182_">
        <path id="XMLID_183_" class="cls-1" d="M62.285,45.2H58.442a1.142,1.142,0,0,0,0,2.285h3.817A1.153,1.153,0,0,0,63.4,46.342,1.13,1.13,0,0,0,62.285,45.2Z" transform="translate(-57.3 -45.2)"/>
      </g>
    </g>
    <g id="XMLID_178_" transform="translate(14.877 46.845)">
      <g id="XMLID_179_">
        <path id="XMLID_180_" class="cls-1" d="M70.308,179H58.442a1.142,1.142,0,1,0,0,2.285H70.308a1.142,1.142,0,0,0,0-2.285Z" transform="translate(-57.3 -179)"/>
      </g>
    </g>
    <g id="XMLID_175_" transform="translate(14.877 35.266)">
      <g id="XMLID_176_">
        <path id="XMLID_177_" class="cls-1" d="M75.059,134.4H58.442a1.142,1.142,0,0,0,0,2.285H75.059a1.142,1.142,0,1,0,0-2.285Z" transform="translate(-57.3 -134.4)"/>
      </g>
    </g>
    <g id="XMLID_172_" transform="translate(14.877 23.686)">
      <g id="XMLID_173_">
        <path id="XMLID_174_" class="cls-1" d="M83.16,89.8H58.442a1.142,1.142,0,0,0,0,2.285H83.16a1.142,1.142,0,0,0,0-2.285Z" transform="translate(-57.3 -89.8)"/>
      </g>
    </g>
    <path id="XMLID_171_" class="cls-1" d="M212.785,150.942a1.142,1.142,0,0,0-2.285,0v11.476h2.259V150.942Z" transform="translate(-155.846 -110.536)"/>
    <path id="XMLID_168_" class="cls-1" d="M84.468.5H37.63A7.535,7.535,0,0,0,30.1,8.03V52.506h2.259V8.03A5.274,5.274,0,0,1,37.63,2.759H79.094c-.026.026-.052.078-.1.1l-.13.13c-.052.052-.078.1-.13.13-.026.052-.078.078-.1.13s-.078.1-.1.156a.566.566,0,0,1-.1.13c-.026.052-.078.1-.1.156s-.078.1-.1.156-.078.1-.1.156a.543.543,0,0,1-.1.156l-.078.156-.078.156-.078.156-.078.156-.078.156-.078.156a1.266,1.266,0,0,0-.078.182l-.078.156a.481.481,0,0,0-.052.182.375.375,0,0,0-.052.182c-.026.052-.026.13-.052.182a1.655,1.655,0,0,0-.052.182c-.026.052-.026.13-.052.182,0,.052-.026.1-.026.182a.572.572,0,0,0-.026.208c0,.052-.026.1-.026.156,0,.078-.026.156-.026.208s-.026.1-.026.156c0,.078-.026.156-.026.234V18.1a1.142,1.142,0,0,0,2.285,0V9.535H90.907a1.139,1.139,0,0,0,.8-.338,1.187,1.187,0,0,0,.338-.8C91.972,3.9,88.726.5,84.468.5ZM79.275,7.277h0a1.124,1.124,0,0,1,.026-.13c0-.052.026-.1.026-.156,0-.026.026-.078.026-.1,0-.052.026-.078.026-.13,0-.026.026-.078.026-.1,0-.052.026-.078.026-.13,0-.026.026-.078.026-.1.026-.052.026-.078.052-.13.026-.026.026-.078.052-.1s.026-.078.052-.1c.026-.052.026-.078.052-.13.026-.026.026-.078.052-.1.026-.052.026-.078.052-.13.026-.026.026-.052.052-.078.026-.052.052-.078.078-.13,0-.026.026-.026.026-.052a6.21,6.21,0,0,1,.338-.545h0c.052-.052.078-.1.13-.156l.026-.026c.052-.052.078-.1.13-.156l.026-.026c.052-.052.078-.1.13-.156l.026-.026.156-.156.026-.026.156-.156h0A5.2,5.2,0,0,1,83.56,2.837h0a.719.719,0,0,1,.234-.026h.026c.078,0,.156-.026.234-.026h.026a.572.572,0,0,0,.208-.026h.26a5.235,5.235,0,0,1,5.141,4.518H79.275Z" transform="translate(-22.285)"/>
    <path id="XMLID_167_" class="cls-1" d="M31.142,212.729h0A1.153,1.153,0,0,1,30,211.587V196.242a1.153,1.153,0,0,1,1.142-1.142h0a1.153,1.153,0,0,1,1.142,1.142v15.345A1.153,1.153,0,0,1,31.142,212.729Z" transform="translate(-22.211 -144.074)"/>
    <path id="XMLID_166_" class="cls-1" d="M12.356,260.965h0a1.144,1.144,0,0,1,0-1.61l4.7-4.7a1.144,1.144,0,0,1,1.61,0h0a1.144,1.144,0,0,1,0,1.61l-4.7,4.7A1.144,1.144,0,0,1,12.356,260.965Z" transform="translate(-8.903 -187.922)"/>
    <path id="XMLID_165_" class="cls-1" d="M77.542,234.94h0A1.153,1.153,0,0,1,76.4,233.8v-7.555a1.153,1.153,0,0,1,1.142-1.142h0a1.153,1.153,0,0,1,1.142,1.142V233.8A1.136,1.136,0,0,1,77.542,234.94Z" transform="translate(-56.564 -166.285)"/>
    <path id="XMLID_158_" class="cls-1" d="M58.756,260.965h0a1.144,1.144,0,0,1,0-1.61l4.7-4.7a1.144,1.144,0,0,1,1.61,0h0a1.144,1.144,0,0,1,0,1.61l-4.7,4.7A1.144,1.144,0,0,1,58.756,260.965Z" transform="translate(-43.256 -187.922)"/>
    <path id="XMLID_157_" class="cls-1" d="M124.042,223.687h0a1.153,1.153,0,0,1-1.142-1.142v-11.5a1.153,1.153,0,0,1,1.142-1.142h0a1.153,1.153,0,0,1,1.142,1.142v11.5A1.17,1.17,0,0,1,124.042,223.687Z" transform="translate(-90.99 -155.032)"/>
    <path id="XMLID_156_" class="cls-1" d="M112.756,258.992h0a1.144,1.144,0,0,1,0-1.61l2.726-2.726a1.144,1.144,0,0,1,1.61,0h0a1.144,1.144,0,0,1,0,1.61l-2.726,2.726A1.144,1.144,0,0,1,112.756,258.992Z" transform="translate(-83.235 -187.922)"/>
    <path id="XMLID_155_" class="cls-1" d="M165.242,210.656h0a1.153,1.153,0,0,1-1.142-1.142V193.442a1.153,1.153,0,0,1,1.142-1.142h0a1.153,1.153,0,0,1,1.142,1.142v16.072A1.153,1.153,0,0,1,165.242,210.656Z" transform="translate(-121.493 -142.001)"/>
    <path id="XMLID_154_" class="cls-1" d="M211.642,205.145h0A1.153,1.153,0,0,1,210.5,204v-8.36a1.153,1.153,0,0,1,1.142-1.142h0a1.153,1.153,0,0,1,1.142,1.142V204A1.153,1.153,0,0,1,211.642,205.145Z" transform="translate(-155.846 -143.63)"/>
    <g id="XMLID_146_" transform="translate(34.766 18.049)">
      <path id="XMLID_151_" class="cls-1" d="M135.9,182.97l.7-1.9-1.272-.675-1.09,1.4a3.433,3.433,0,0,1-.338,2.467A4.026,4.026,0,0,1,135.9,182.97Zm-.8-.987a.34.34,0,0,1,.415.208.311.311,0,0,1-.208.389.34.34,0,0,1-.415-.208A.323.323,0,0,1,135.094,181.984Z" transform="translate(-133.9 -151.24)"/>
      <path id="XMLID_150_" class="cls-1" d="M159.794,85.49c-4.206,2.726-9.97,8.7-15.111,15.812h0l-.883,1.246.753.389.545-1.065c2.752-3.869,10.126-13.917,22.251-19.81A74.468,74.468,0,0,0,176.385,77,42.62,42.62,0,0,1,172,79.129C168.959,80.635,165.272,81.933,159.794,85.49Z" transform="translate(-141.23 -74.686)"/>
      <path id="XMLID_149_" class="cls-1" d="M143.987,88.655c-1.22,3.012-1.428,5.375-1.168,6.05l.519.052c1.791-2.882,10.074-13.086,14.851-16.02A64.165,64.165,0,0,1,170,72.817a21.373,21.373,0,0,0,3.271-1.636c1.272-.779,2.544-1.636,3.687-2.493l-3.219,1.636,1.558-1.9-2.83,2.311,1.973-2.648a22.579,22.579,0,0,0-7.815,1.48,20.32,20.32,0,0,0-3.116,4.18,10.175,10.175,0,0,1,1.272-3.349c-.727.234-3.505,1.428-3.505,1.428-1.4.909-2.1,3.661-2.1,3.661a7.637,7.637,0,0,1,.961-3.142,23.63,23.63,0,0,0-6.958,5.037c-2.207,3.375-1.039,6.335-1.532,5.608s-.1-3.142-.1-3.142c-4.258,3.271-4.855,4.985-4.855,4.985a34.851,34.851,0,0,0-1.843,5.634c-.312-.441.286-2.6.286-2.6a6.4,6.4,0,0,0-.909,3.765C143.805,91.407,143.987,88.655,143.987,88.655Z" transform="translate(-140.43 -68.089)"/>
      <path id="XMLID_148_" class="cls-1" d="M183.184,75.2a40.208,40.208,0,0,1-3.687,2.493c-3.245,2.025-6.309,3.609-6.309,3.609-11.943,5.375-19.395,15.5-21.888,18.98l1.09.13c.415-.26,1.039-.441,3.557-.883a12.311,12.311,0,0,0,5.219-2.207s-2.986,1.272-4.284.961a9.616,9.616,0,0,0-3.142,0s-.649-.389,2.752-.519,9.321-3.271,9.321-3.271a10.457,10.457,0,0,1-3.168.441c-.961-.182-3.375-.363-3.375-.363,1.636-.182,3.09.182,5.634-.467a16.341,16.341,0,0,1,2.389-.571,7.149,7.149,0,0,0,4.31-3.349,15.6,15.6,0,0,1-5.634-.441,11.278,11.278,0,0,0-4.076-.441,7.015,7.015,0,0,1,3.609-.078,17.16,17.16,0,0,0,6.439-.467c3.947-.883,5.219-2.389,5.219-2.389l-2.6.052a13,13,0,0,0,3.713-.987,21.227,21.227,0,0,1-3.012.13,13.915,13.915,0,0,0,3.453-.753A7.129,7.129,0,0,0,181.6,81.3a10.8,10.8,0,0,1-5.141-.052c3.921.182,5.115-.7,5.66-.883.571-.182.909-1.116.909-1.116a16.883,16.883,0,0,1-4.284.363,14.391,14.391,0,0,0,4.648-1.09l.13-1.22a13.577,13.577,0,0,1-2.674.649l2.726-1.376A1.43,1.43,0,0,0,183.184,75.2Z" transform="translate(-146.782 -73.354)"/>
      <path id="XMLID_147_" class="cls-1" d="M140,176.823l1.454.779.338-.649-1.428-.753Z" transform="translate(-138.416 -148.13)"/>
    </g>
    <path id="XMLID_143_" class="cls-1" d="M2.467,275.9A1.168,1.168,0,1,1,1.3,277.067,1.164,1.164,0,0,1,2.467,275.9m0-1.3a2.467,2.467,0,1,0,2.467,2.467A2.465,2.465,0,0,0,2.467,274.6Z" transform="translate(0 -202.933)"/>
    <path id="XMLID_140_" class="cls-1" d="M48.967,275.9a1.168,1.168,0,1,1-1.168,1.168,1.147,1.147,0,0,1,1.168-1.168m0-1.3a2.467,2.467,0,1,0,2.467,2.467,2.465,2.465,0,0,0-2.467-2.467Z" transform="translate(-34.427 -202.933)"/>
    <path id="XMLID_137_" class="cls-1" d="M102.967,268.3a1.168,1.168,0,1,1-1.168,1.168,1.164,1.164,0,0,1,1.168-1.168m0-1.3a2.467,2.467,0,1,0,2.467,2.467A2.465,2.465,0,0,0,102.967,267Z" transform="translate(-74.406 -197.306)"/>
    <path id="XMLID_134_" class="cls-1" d="M161.467,260.1a1.168,1.168,0,1,1-1.168,1.168,1.164,1.164,0,0,1,1.168-1.168m0-1.3a2.467,2.467,0,1,0,2.467,2.467,2.465,2.465,0,0,0-2.467-2.467Z" transform="translate(-117.717 -191.235)"/>
    <path id="XMLID_116_" class="cls-1" d="M207.867,232.3a1.168,1.168,0,1,1-1.168,1.168,1.163,1.163,0,0,1,1.168-1.168m0-1.3a2.467,2.467,0,1,0,2.467,2.467A2.465,2.465,0,0,0,207.867,231Z" transform="translate(-152.07 -170.653)"/>
  </g>
</svg>
