<?xml version="1.0" encoding="utf-8"?>
<!-- Generator: Adobe Illustrator 19.0.0, SVG Export Plug-In . SVG Version: 6.00 Build 0)  -->
<svg version="1.1" id="Capa_1" xmlns="http://www.w3.org/2000/svg" xmlns:xlink="http://www.w3.org/1999/xlink" x="0px" y="0px"
	 viewBox="-451 253 56 56" style="enable-background:new -451 253 56 56;" xml:space="preserve">
<style type="text/css">
	.st0{fill:#1739E6;}
</style>
<g>
	<path class="st0" d="M-423,253c-15.4,0-28,12.6-28,28s12.6,28,28,28s28-12.6,28-28S-407.6,253-423,253z M-423,307
		c-14.3,0-26-11.7-26-26s11.7-26,26-26s26,11.7,26,26S-408.7,307-423,307z"/>
	<path class="st0" d="M-436,270h26c0.6,0,1-0.4,1-1s-0.4-1-1-1h-26c-0.6,0-1,0.4-1,1S-436.6,270-436,270z"/>
	<path class="st0" d="M-406,284h-34c-0.6,0-1,0.4-1,1s0.4,1,1,1h34c0.6,0,1-0.4,1-1S-405.4,284-406,284z"/>
	<path class="st0" d="M-406,276h-34c-0.6,0-1,0.4-1,1s0.4,1,1,1h34c0.6,0,1-0.4,1-1S-405.4,276-406,276z"/>
	<path class="st0" d="M-410,292h-26c-0.6,0-1,0.4-1,1s0.4,1,1,1h26c0.6,0,1-0.4,1-1S-409.4,292-410,292z"/>
</g>
</svg>
